G04 #@! TF.GenerationSoftware,KiCad,Pcbnew,(5.1.6)-1*
G04 #@! TF.CreationDate,2022-01-01T16:18:36+09:00*
G04 #@! TF.ProjectId,kp1,6b70312e-6b69-4636-9164-5f7063625858,rev?*
G04 #@! TF.SameCoordinates,Original*
G04 #@! TF.FileFunction,Soldermask,Top*
G04 #@! TF.FilePolarity,Negative*
%FSLAX46Y46*%
G04 Gerber Fmt 4.6, Leading zero omitted, Abs format (unit mm)*
G04 Created by KiCad (PCBNEW (5.1.6)-1) date 2022-01-01 16:18:36*
%MOMM*%
%LPD*%
G01*
G04 APERTURE LIST*
%ADD10C,0.010000*%
%ADD11C,0.100000*%
G04 APERTURE END LIST*
D10*
G36*
X133659750Y-110432246D02*
G01*
X133676225Y-110478835D01*
X133699696Y-110548836D01*
X133728679Y-110637772D01*
X133761693Y-110741163D01*
X133790598Y-110833157D01*
X133917928Y-111241276D01*
X134290131Y-111467082D01*
X134390909Y-111528595D01*
X134481638Y-111584689D01*
X134558424Y-111632898D01*
X134617375Y-111670759D01*
X134654599Y-111695805D01*
X134666290Y-111705278D01*
X134654099Y-111717973D01*
X134617734Y-111747168D01*
X134560884Y-111790112D01*
X134487240Y-111844057D01*
X134400492Y-111906253D01*
X134325047Y-111959468D01*
X134229237Y-112026934D01*
X134142308Y-112088819D01*
X134068241Y-112142235D01*
X134011014Y-112184295D01*
X133974608Y-112212111D01*
X133963323Y-112221935D01*
X133953777Y-112245222D01*
X133938857Y-112295055D01*
X133920357Y-112364879D01*
X133900070Y-112448141D01*
X133892784Y-112479667D01*
X133855923Y-112640901D01*
X133825666Y-112771886D01*
X133801304Y-112875439D01*
X133782130Y-112954380D01*
X133767436Y-113011525D01*
X133756515Y-113049694D01*
X133748660Y-113071706D01*
X133743164Y-113080378D01*
X133741906Y-113080800D01*
X133722711Y-113071100D01*
X133688005Y-113046658D01*
X133671358Y-113033706D01*
X133640046Y-113009425D01*
X133586619Y-112968815D01*
X133516171Y-112915715D01*
X133433795Y-112853961D01*
X133344585Y-112787389D01*
X133323036Y-112771353D01*
X133033605Y-112556093D01*
X132654169Y-112589672D01*
X132540425Y-112599502D01*
X132434557Y-112608213D01*
X132342428Y-112615356D01*
X132269898Y-112620484D01*
X132222830Y-112623149D01*
X132212257Y-112623425D01*
X132149780Y-112623600D01*
X132290521Y-112204607D01*
X132431262Y-111785613D01*
X132264098Y-111389109D01*
X132218587Y-111280533D01*
X132177792Y-111182002D01*
X132143479Y-111097884D01*
X132117418Y-111032548D01*
X132101374Y-110990363D01*
X132096934Y-110976041D01*
X132113614Y-110970888D01*
X132162734Y-110967495D01*
X132242910Y-110965885D01*
X132352760Y-110966080D01*
X132490900Y-110968103D01*
X132534931Y-110969010D01*
X132972929Y-110978542D01*
X133306582Y-110690299D01*
X133396476Y-110613427D01*
X133478077Y-110545152D01*
X133547902Y-110488264D01*
X133602471Y-110445556D01*
X133638302Y-110419817D01*
X133651750Y-110413547D01*
X133659750Y-110432246D01*
G37*
X133659750Y-110432246D02*
X133676225Y-110478835D01*
X133699696Y-110548836D01*
X133728679Y-110637772D01*
X133761693Y-110741163D01*
X133790598Y-110833157D01*
X133917928Y-111241276D01*
X134290131Y-111467082D01*
X134390909Y-111528595D01*
X134481638Y-111584689D01*
X134558424Y-111632898D01*
X134617375Y-111670759D01*
X134654599Y-111695805D01*
X134666290Y-111705278D01*
X134654099Y-111717973D01*
X134617734Y-111747168D01*
X134560884Y-111790112D01*
X134487240Y-111844057D01*
X134400492Y-111906253D01*
X134325047Y-111959468D01*
X134229237Y-112026934D01*
X134142308Y-112088819D01*
X134068241Y-112142235D01*
X134011014Y-112184295D01*
X133974608Y-112212111D01*
X133963323Y-112221935D01*
X133953777Y-112245222D01*
X133938857Y-112295055D01*
X133920357Y-112364879D01*
X133900070Y-112448141D01*
X133892784Y-112479667D01*
X133855923Y-112640901D01*
X133825666Y-112771886D01*
X133801304Y-112875439D01*
X133782130Y-112954380D01*
X133767436Y-113011525D01*
X133756515Y-113049694D01*
X133748660Y-113071706D01*
X133743164Y-113080378D01*
X133741906Y-113080800D01*
X133722711Y-113071100D01*
X133688005Y-113046658D01*
X133671358Y-113033706D01*
X133640046Y-113009425D01*
X133586619Y-112968815D01*
X133516171Y-112915715D01*
X133433795Y-112853961D01*
X133344585Y-112787389D01*
X133323036Y-112771353D01*
X133033605Y-112556093D01*
X132654169Y-112589672D01*
X132540425Y-112599502D01*
X132434557Y-112608213D01*
X132342428Y-112615356D01*
X132269898Y-112620484D01*
X132222830Y-112623149D01*
X132212257Y-112623425D01*
X132149780Y-112623600D01*
X132290521Y-112204607D01*
X132431262Y-111785613D01*
X132264098Y-111389109D01*
X132218587Y-111280533D01*
X132177792Y-111182002D01*
X132143479Y-111097884D01*
X132117418Y-111032548D01*
X132101374Y-110990363D01*
X132096934Y-110976041D01*
X132113614Y-110970888D01*
X132162734Y-110967495D01*
X132242910Y-110965885D01*
X132352760Y-110966080D01*
X132490900Y-110968103D01*
X132534931Y-110969010D01*
X132972929Y-110978542D01*
X133306582Y-110690299D01*
X133396476Y-110613427D01*
X133478077Y-110545152D01*
X133547902Y-110488264D01*
X133602471Y-110445556D01*
X133638302Y-110419817D01*
X133651750Y-110413547D01*
X133659750Y-110432246D01*
G36*
X131119750Y-101542246D02*
G01*
X131136225Y-101588835D01*
X131159696Y-101658836D01*
X131188679Y-101747772D01*
X131221693Y-101851163D01*
X131250598Y-101943157D01*
X131377928Y-102351276D01*
X131750131Y-102577082D01*
X131850909Y-102638595D01*
X131941638Y-102694689D01*
X132018424Y-102742898D01*
X132077375Y-102780759D01*
X132114599Y-102805805D01*
X132126290Y-102815278D01*
X132114099Y-102827973D01*
X132077734Y-102857168D01*
X132020884Y-102900112D01*
X131947240Y-102954057D01*
X131860492Y-103016253D01*
X131785047Y-103069468D01*
X131689237Y-103136934D01*
X131602308Y-103198819D01*
X131528241Y-103252235D01*
X131471014Y-103294295D01*
X131434608Y-103322111D01*
X131423323Y-103331935D01*
X131413777Y-103355222D01*
X131398857Y-103405055D01*
X131380357Y-103474879D01*
X131360070Y-103558141D01*
X131352784Y-103589667D01*
X131315923Y-103750901D01*
X131285666Y-103881886D01*
X131261304Y-103985439D01*
X131242130Y-104064380D01*
X131227436Y-104121525D01*
X131216515Y-104159694D01*
X131208660Y-104181706D01*
X131203164Y-104190378D01*
X131201906Y-104190800D01*
X131182711Y-104181100D01*
X131148005Y-104156658D01*
X131131358Y-104143706D01*
X131100046Y-104119425D01*
X131046619Y-104078815D01*
X130976171Y-104025715D01*
X130893795Y-103963961D01*
X130804585Y-103897389D01*
X130783036Y-103881353D01*
X130493605Y-103666093D01*
X130114169Y-103699672D01*
X130000425Y-103709502D01*
X129894557Y-103718213D01*
X129802428Y-103725356D01*
X129729898Y-103730484D01*
X129682830Y-103733149D01*
X129672257Y-103733425D01*
X129609780Y-103733600D01*
X129750521Y-103314607D01*
X129891262Y-102895613D01*
X129724098Y-102499109D01*
X129678587Y-102390533D01*
X129637792Y-102292002D01*
X129603479Y-102207884D01*
X129577418Y-102142548D01*
X129561374Y-102100363D01*
X129556934Y-102086041D01*
X129573614Y-102080888D01*
X129622734Y-102077495D01*
X129702910Y-102075885D01*
X129812760Y-102076080D01*
X129950900Y-102078103D01*
X129994931Y-102079010D01*
X130432929Y-102088542D01*
X130766582Y-101800299D01*
X130856476Y-101723427D01*
X130938077Y-101655152D01*
X131007902Y-101598264D01*
X131062471Y-101555556D01*
X131098302Y-101529817D01*
X131111750Y-101523547D01*
X131119750Y-101542246D01*
G37*
X131119750Y-101542246D02*
X131136225Y-101588835D01*
X131159696Y-101658836D01*
X131188679Y-101747772D01*
X131221693Y-101851163D01*
X131250598Y-101943157D01*
X131377928Y-102351276D01*
X131750131Y-102577082D01*
X131850909Y-102638595D01*
X131941638Y-102694689D01*
X132018424Y-102742898D01*
X132077375Y-102780759D01*
X132114599Y-102805805D01*
X132126290Y-102815278D01*
X132114099Y-102827973D01*
X132077734Y-102857168D01*
X132020884Y-102900112D01*
X131947240Y-102954057D01*
X131860492Y-103016253D01*
X131785047Y-103069468D01*
X131689237Y-103136934D01*
X131602308Y-103198819D01*
X131528241Y-103252235D01*
X131471014Y-103294295D01*
X131434608Y-103322111D01*
X131423323Y-103331935D01*
X131413777Y-103355222D01*
X131398857Y-103405055D01*
X131380357Y-103474879D01*
X131360070Y-103558141D01*
X131352784Y-103589667D01*
X131315923Y-103750901D01*
X131285666Y-103881886D01*
X131261304Y-103985439D01*
X131242130Y-104064380D01*
X131227436Y-104121525D01*
X131216515Y-104159694D01*
X131208660Y-104181706D01*
X131203164Y-104190378D01*
X131201906Y-104190800D01*
X131182711Y-104181100D01*
X131148005Y-104156658D01*
X131131358Y-104143706D01*
X131100046Y-104119425D01*
X131046619Y-104078815D01*
X130976171Y-104025715D01*
X130893795Y-103963961D01*
X130804585Y-103897389D01*
X130783036Y-103881353D01*
X130493605Y-103666093D01*
X130114169Y-103699672D01*
X130000425Y-103709502D01*
X129894557Y-103718213D01*
X129802428Y-103725356D01*
X129729898Y-103730484D01*
X129682830Y-103733149D01*
X129672257Y-103733425D01*
X129609780Y-103733600D01*
X129750521Y-103314607D01*
X129891262Y-102895613D01*
X129724098Y-102499109D01*
X129678587Y-102390533D01*
X129637792Y-102292002D01*
X129603479Y-102207884D01*
X129577418Y-102142548D01*
X129561374Y-102100363D01*
X129556934Y-102086041D01*
X129573614Y-102080888D01*
X129622734Y-102077495D01*
X129702910Y-102075885D01*
X129812760Y-102076080D01*
X129950900Y-102078103D01*
X129994931Y-102079010D01*
X130432929Y-102088542D01*
X130766582Y-101800299D01*
X130856476Y-101723427D01*
X130938077Y-101655152D01*
X131007902Y-101598264D01*
X131062471Y-101555556D01*
X131098302Y-101529817D01*
X131111750Y-101523547D01*
X131119750Y-101542246D01*
D11*
G36*
X137850026Y-137846115D02*
G01*
X138068411Y-137936573D01*
X138068413Y-137936574D01*
X138264955Y-138067899D01*
X138432101Y-138235045D01*
X138560753Y-138427586D01*
X138563427Y-138431589D01*
X138653885Y-138649974D01*
X138700000Y-138881809D01*
X138700000Y-139118191D01*
X138653885Y-139350026D01*
X138586461Y-139512801D01*
X138563426Y-139568413D01*
X138432101Y-139764955D01*
X138264955Y-139932101D01*
X138068413Y-140063426D01*
X138068412Y-140063427D01*
X138068411Y-140063427D01*
X137850026Y-140153885D01*
X137618191Y-140200000D01*
X137381809Y-140200000D01*
X137149974Y-140153885D01*
X136931589Y-140063427D01*
X136931588Y-140063427D01*
X136931587Y-140063426D01*
X136735045Y-139932101D01*
X136567899Y-139764955D01*
X136436574Y-139568413D01*
X136413539Y-139512801D01*
X136346115Y-139350026D01*
X136300000Y-139118191D01*
X136300000Y-138881809D01*
X136346115Y-138649974D01*
X136436573Y-138431589D01*
X136439248Y-138427586D01*
X136567899Y-138235045D01*
X136735045Y-138067899D01*
X136931587Y-137936574D01*
X136931589Y-137936573D01*
X137149974Y-137846115D01*
X137381809Y-137800000D01*
X137618191Y-137800000D01*
X137850026Y-137846115D01*
G37*
G36*
X55350026Y-137846115D02*
G01*
X55568411Y-137936573D01*
X55568413Y-137936574D01*
X55764955Y-138067899D01*
X55932101Y-138235045D01*
X56060753Y-138427586D01*
X56063427Y-138431589D01*
X56153885Y-138649974D01*
X56200000Y-138881809D01*
X56200000Y-139118191D01*
X56153885Y-139350026D01*
X56086461Y-139512801D01*
X56063426Y-139568413D01*
X55932101Y-139764955D01*
X55764955Y-139932101D01*
X55568413Y-140063426D01*
X55568412Y-140063427D01*
X55568411Y-140063427D01*
X55350026Y-140153885D01*
X55118191Y-140200000D01*
X54881809Y-140200000D01*
X54649974Y-140153885D01*
X54431589Y-140063427D01*
X54431588Y-140063427D01*
X54431587Y-140063426D01*
X54235045Y-139932101D01*
X54067899Y-139764955D01*
X53936574Y-139568413D01*
X53913539Y-139512801D01*
X53846115Y-139350026D01*
X53800000Y-139118191D01*
X53800000Y-138881809D01*
X53846115Y-138649974D01*
X53936573Y-138431589D01*
X53939248Y-138427586D01*
X54067899Y-138235045D01*
X54235045Y-138067899D01*
X54431587Y-137936574D01*
X54431589Y-137936573D01*
X54649974Y-137846115D01*
X54881809Y-137800000D01*
X55118191Y-137800000D01*
X55350026Y-137846115D01*
G37*
G36*
X100786703Y-136731486D02*
G01*
X101077883Y-136852097D01*
X101339940Y-137027198D01*
X101562802Y-137250060D01*
X101737903Y-137512117D01*
X101858514Y-137803297D01*
X101920000Y-138112412D01*
X101920000Y-138427588D01*
X101858514Y-138736703D01*
X101737903Y-139027883D01*
X101562802Y-139289940D01*
X101339940Y-139512802D01*
X101077883Y-139687903D01*
X100786703Y-139808514D01*
X100477588Y-139870000D01*
X100162412Y-139870000D01*
X99853297Y-139808514D01*
X99562117Y-139687903D01*
X99300060Y-139512802D01*
X99077198Y-139289940D01*
X98902097Y-139027883D01*
X98781486Y-138736703D01*
X98720000Y-138427588D01*
X98720000Y-138112412D01*
X98781486Y-137803297D01*
X98902097Y-137512117D01*
X99077198Y-137250060D01*
X99300060Y-137027198D01*
X99562117Y-136852097D01*
X99853297Y-136731486D01*
X100162412Y-136670000D01*
X100477588Y-136670000D01*
X100786703Y-136731486D01*
G37*
G36*
X119836703Y-136731486D02*
G01*
X120127883Y-136852097D01*
X120389940Y-137027198D01*
X120612802Y-137250060D01*
X120787903Y-137512117D01*
X120908514Y-137803297D01*
X120970000Y-138112412D01*
X120970000Y-138427588D01*
X120908514Y-138736703D01*
X120787903Y-139027883D01*
X120612802Y-139289940D01*
X120389940Y-139512802D01*
X120127883Y-139687903D01*
X119836703Y-139808514D01*
X119527588Y-139870000D01*
X119212412Y-139870000D01*
X118903297Y-139808514D01*
X118612117Y-139687903D01*
X118350060Y-139512802D01*
X118127198Y-139289940D01*
X117952097Y-139027883D01*
X117831486Y-138736703D01*
X117770000Y-138427588D01*
X117770000Y-138112412D01*
X117831486Y-137803297D01*
X117952097Y-137512117D01*
X118127198Y-137250060D01*
X118350060Y-137027198D01*
X118612117Y-136852097D01*
X118903297Y-136731486D01*
X119212412Y-136670000D01*
X119527588Y-136670000D01*
X119836703Y-136731486D01*
G37*
G36*
X81736703Y-136731486D02*
G01*
X82027883Y-136852097D01*
X82289940Y-137027198D01*
X82512802Y-137250060D01*
X82687903Y-137512117D01*
X82808514Y-137803297D01*
X82870000Y-138112412D01*
X82870000Y-138427588D01*
X82808514Y-138736703D01*
X82687903Y-139027883D01*
X82512802Y-139289940D01*
X82289940Y-139512802D01*
X82027883Y-139687903D01*
X81736703Y-139808514D01*
X81427588Y-139870000D01*
X81112412Y-139870000D01*
X80803297Y-139808514D01*
X80512117Y-139687903D01*
X80250060Y-139512802D01*
X80027198Y-139289940D01*
X79852097Y-139027883D01*
X79731486Y-138736703D01*
X79670000Y-138427588D01*
X79670000Y-138112412D01*
X79731486Y-137803297D01*
X79852097Y-137512117D01*
X80027198Y-137250060D01*
X80250060Y-137027198D01*
X80512117Y-136852097D01*
X80803297Y-136731486D01*
X81112412Y-136670000D01*
X81427588Y-136670000D01*
X81736703Y-136731486D01*
G37*
G36*
X114836703Y-134531486D02*
G01*
X115127883Y-134652097D01*
X115389940Y-134827198D01*
X115612802Y-135050060D01*
X115787903Y-135312117D01*
X115908514Y-135603297D01*
X115970000Y-135912412D01*
X115970000Y-136227588D01*
X115908514Y-136536703D01*
X115787903Y-136827883D01*
X115612802Y-137089940D01*
X115389940Y-137312802D01*
X115127883Y-137487903D01*
X114836703Y-137608514D01*
X114527588Y-137670000D01*
X114212412Y-137670000D01*
X113903297Y-137608514D01*
X113612117Y-137487903D01*
X113350060Y-137312802D01*
X113127198Y-137089940D01*
X112952097Y-136827883D01*
X112831486Y-136536703D01*
X112770000Y-136227588D01*
X112770000Y-135912412D01*
X112831486Y-135603297D01*
X112952097Y-135312117D01*
X113127198Y-135050060D01*
X113350060Y-134827198D01*
X113612117Y-134652097D01*
X113903297Y-134531486D01*
X114212412Y-134470000D01*
X114527588Y-134470000D01*
X114836703Y-134531486D01*
G37*
G36*
X95786703Y-134531486D02*
G01*
X96077883Y-134652097D01*
X96339940Y-134827198D01*
X96562802Y-135050060D01*
X96737903Y-135312117D01*
X96858514Y-135603297D01*
X96920000Y-135912412D01*
X96920000Y-136227588D01*
X96858514Y-136536703D01*
X96737903Y-136827883D01*
X96562802Y-137089940D01*
X96339940Y-137312802D01*
X96077883Y-137487903D01*
X95786703Y-137608514D01*
X95477588Y-137670000D01*
X95162412Y-137670000D01*
X94853297Y-137608514D01*
X94562117Y-137487903D01*
X94300060Y-137312802D01*
X94077198Y-137089940D01*
X93902097Y-136827883D01*
X93781486Y-136536703D01*
X93720000Y-136227588D01*
X93720000Y-135912412D01*
X93781486Y-135603297D01*
X93902097Y-135312117D01*
X94077198Y-135050060D01*
X94300060Y-134827198D01*
X94562117Y-134652097D01*
X94853297Y-134531486D01*
X95162412Y-134470000D01*
X95477588Y-134470000D01*
X95786703Y-134531486D01*
G37*
G36*
X76736703Y-134531486D02*
G01*
X77027883Y-134652097D01*
X77289940Y-134827198D01*
X77512802Y-135050060D01*
X77687903Y-135312117D01*
X77808514Y-135603297D01*
X77870000Y-135912412D01*
X77870000Y-136227588D01*
X77808514Y-136536703D01*
X77687903Y-136827883D01*
X77512802Y-137089940D01*
X77289940Y-137312802D01*
X77027883Y-137487903D01*
X76736703Y-137608514D01*
X76427588Y-137670000D01*
X76112412Y-137670000D01*
X75803297Y-137608514D01*
X75512117Y-137487903D01*
X75250060Y-137312802D01*
X75027198Y-137089940D01*
X74852097Y-136827883D01*
X74731486Y-136536703D01*
X74670000Y-136227588D01*
X74670000Y-135912412D01*
X74731486Y-135603297D01*
X74852097Y-135312117D01*
X75027198Y-135050060D01*
X75250060Y-134827198D01*
X75512117Y-134652097D01*
X75803297Y-134531486D01*
X76112412Y-134470000D01*
X76427588Y-134470000D01*
X76736703Y-134531486D01*
G37*
G36*
X81799270Y-130575230D02*
G01*
X82129488Y-130712011D01*
X82426677Y-130910586D01*
X82679414Y-131163323D01*
X82877989Y-131460512D01*
X83014770Y-131790730D01*
X83084500Y-132141287D01*
X83084500Y-132498713D01*
X83014770Y-132849270D01*
X82877989Y-133179488D01*
X82679414Y-133476677D01*
X82426677Y-133729414D01*
X82129488Y-133927989D01*
X81799270Y-134064770D01*
X81623991Y-134099635D01*
X81448714Y-134134500D01*
X81091286Y-134134500D01*
X80916009Y-134099635D01*
X80740730Y-134064770D01*
X80410512Y-133927989D01*
X80113323Y-133729414D01*
X79860586Y-133476677D01*
X79662011Y-133179488D01*
X79525230Y-132849270D01*
X79455500Y-132498713D01*
X79455500Y-132141287D01*
X79525230Y-131790730D01*
X79662011Y-131460512D01*
X79860586Y-131163323D01*
X80113323Y-130910586D01*
X80410512Y-130712011D01*
X80740730Y-130575230D01*
X81091286Y-130505500D01*
X81448714Y-130505500D01*
X81799270Y-130575230D01*
G37*
G36*
X100849270Y-130575230D02*
G01*
X101179488Y-130712011D01*
X101476677Y-130910586D01*
X101729414Y-131163323D01*
X101927989Y-131460512D01*
X102064770Y-131790730D01*
X102134500Y-132141287D01*
X102134500Y-132498713D01*
X102064770Y-132849270D01*
X101927989Y-133179488D01*
X101729414Y-133476677D01*
X101476677Y-133729414D01*
X101179488Y-133927989D01*
X100849270Y-134064770D01*
X100673991Y-134099635D01*
X100498714Y-134134500D01*
X100141286Y-134134500D01*
X99966009Y-134099635D01*
X99790730Y-134064770D01*
X99460512Y-133927989D01*
X99163323Y-133729414D01*
X98910586Y-133476677D01*
X98712011Y-133179488D01*
X98575230Y-132849270D01*
X98505500Y-132498713D01*
X98505500Y-132141287D01*
X98575230Y-131790730D01*
X98712011Y-131460512D01*
X98910586Y-131163323D01*
X99163323Y-130910586D01*
X99460512Y-130712011D01*
X99790730Y-130575230D01*
X100141286Y-130505500D01*
X100498714Y-130505500D01*
X100849270Y-130575230D01*
G37*
G36*
X119899270Y-130575230D02*
G01*
X120229488Y-130712011D01*
X120526677Y-130910586D01*
X120779414Y-131163323D01*
X120977989Y-131460512D01*
X121114770Y-131790730D01*
X121184500Y-132141287D01*
X121184500Y-132498713D01*
X121114770Y-132849270D01*
X120977989Y-133179488D01*
X120779414Y-133476677D01*
X120526677Y-133729414D01*
X120229488Y-133927989D01*
X119899270Y-134064770D01*
X119723991Y-134099635D01*
X119548714Y-134134500D01*
X119191286Y-134134500D01*
X119016009Y-134099635D01*
X118840730Y-134064770D01*
X118510512Y-133927989D01*
X118213323Y-133729414D01*
X117960586Y-133476677D01*
X117762011Y-133179488D01*
X117625230Y-132849270D01*
X117555500Y-132498713D01*
X117555500Y-132141287D01*
X117625230Y-131790730D01*
X117762011Y-131460512D01*
X117960586Y-131163323D01*
X118213323Y-130910586D01*
X118510512Y-130712011D01*
X118840730Y-130575230D01*
X119191286Y-130505500D01*
X119548714Y-130505500D01*
X119899270Y-130575230D01*
G37*
G36*
X110511491Y-132331957D02*
G01*
X110562914Y-132342186D01*
X110708232Y-132402378D01*
X110839014Y-132489764D01*
X110950236Y-132600986D01*
X111037622Y-132731768D01*
X111086292Y-132849270D01*
X111097814Y-132877087D01*
X111128500Y-133031353D01*
X111128500Y-133188647D01*
X111108043Y-133291491D01*
X111097814Y-133342914D01*
X111037622Y-133488232D01*
X110950236Y-133619014D01*
X110839014Y-133730236D01*
X110708232Y-133817622D01*
X110562914Y-133877814D01*
X110511491Y-133888043D01*
X110408647Y-133908500D01*
X110251353Y-133908500D01*
X110148509Y-133888043D01*
X110097086Y-133877814D01*
X109951768Y-133817622D01*
X109820986Y-133730236D01*
X109709764Y-133619014D01*
X109622378Y-133488232D01*
X109562186Y-133342914D01*
X109551957Y-133291491D01*
X109531500Y-133188647D01*
X109531500Y-133031353D01*
X109562186Y-132877087D01*
X109573708Y-132849270D01*
X109622378Y-132731768D01*
X109709764Y-132600986D01*
X109820986Y-132489764D01*
X109951768Y-132402378D01*
X110097086Y-132342186D01*
X110148509Y-132331957D01*
X110251353Y-132311500D01*
X110408647Y-132311500D01*
X110511491Y-132331957D01*
G37*
G36*
X91483491Y-132331957D02*
G01*
X91534914Y-132342186D01*
X91680232Y-132402378D01*
X91811014Y-132489764D01*
X91922236Y-132600986D01*
X92009622Y-132731768D01*
X92058292Y-132849270D01*
X92069814Y-132877087D01*
X92100500Y-133031353D01*
X92100500Y-133188647D01*
X92080043Y-133291491D01*
X92069814Y-133342914D01*
X92009622Y-133488232D01*
X91922236Y-133619014D01*
X91811014Y-133730236D01*
X91680232Y-133817622D01*
X91534914Y-133877814D01*
X91483491Y-133888043D01*
X91380647Y-133908500D01*
X91223353Y-133908500D01*
X91120509Y-133888043D01*
X91069086Y-133877814D01*
X90923768Y-133817622D01*
X90792986Y-133730236D01*
X90681764Y-133619014D01*
X90594378Y-133488232D01*
X90534186Y-133342914D01*
X90523957Y-133291491D01*
X90503500Y-133188647D01*
X90503500Y-133031353D01*
X90534186Y-132877087D01*
X90545708Y-132849270D01*
X90594378Y-132731768D01*
X90681764Y-132600986D01*
X90792986Y-132489764D01*
X90923768Y-132402378D01*
X91069086Y-132342186D01*
X91120509Y-132331957D01*
X91223353Y-132311500D01*
X91380647Y-132311500D01*
X91483491Y-132331957D01*
G37*
G36*
X72313491Y-132331957D02*
G01*
X72364914Y-132342186D01*
X72510232Y-132402378D01*
X72641014Y-132489764D01*
X72752236Y-132600986D01*
X72839622Y-132731768D01*
X72888292Y-132849270D01*
X72899814Y-132877087D01*
X72930500Y-133031353D01*
X72930500Y-133188647D01*
X72910043Y-133291491D01*
X72899814Y-133342914D01*
X72839622Y-133488232D01*
X72752236Y-133619014D01*
X72641014Y-133730236D01*
X72510232Y-133817622D01*
X72364914Y-133877814D01*
X72313491Y-133888043D01*
X72210647Y-133908500D01*
X72053353Y-133908500D01*
X71950509Y-133888043D01*
X71899086Y-133877814D01*
X71753768Y-133817622D01*
X71622986Y-133730236D01*
X71511764Y-133619014D01*
X71424378Y-133488232D01*
X71364186Y-133342914D01*
X71353957Y-133291491D01*
X71333500Y-133188647D01*
X71333500Y-133031353D01*
X71364186Y-132877087D01*
X71375708Y-132849270D01*
X71424378Y-132731768D01*
X71511764Y-132600986D01*
X71622986Y-132489764D01*
X71753768Y-132402378D01*
X71899086Y-132342186D01*
X71950509Y-132331957D01*
X72053353Y-132311500D01*
X72210647Y-132311500D01*
X72313491Y-132331957D01*
G37*
G36*
X114147366Y-131405642D02*
G01*
X114219047Y-131435334D01*
X114320420Y-131477323D01*
X114476163Y-131581388D01*
X114608612Y-131713837D01*
X114712677Y-131869580D01*
X114754666Y-131970953D01*
X114784358Y-132042634D01*
X114820900Y-132226343D01*
X114820900Y-132413657D01*
X114784358Y-132597366D01*
X114754666Y-132669047D01*
X114712677Y-132770420D01*
X114608612Y-132926163D01*
X114476163Y-133058612D01*
X114320420Y-133162677D01*
X114219047Y-133204666D01*
X114147366Y-133234358D01*
X113963657Y-133270900D01*
X113776343Y-133270900D01*
X113592634Y-133234358D01*
X113520953Y-133204666D01*
X113419580Y-133162677D01*
X113263837Y-133058612D01*
X113131388Y-132926163D01*
X113027323Y-132770420D01*
X112985334Y-132669047D01*
X112955642Y-132597366D01*
X112919100Y-132413657D01*
X112919100Y-132226343D01*
X112955642Y-132042634D01*
X112985334Y-131970953D01*
X113027323Y-131869580D01*
X113131388Y-131713837D01*
X113263837Y-131581388D01*
X113419580Y-131477323D01*
X113520953Y-131435334D01*
X113592634Y-131405642D01*
X113776343Y-131369100D01*
X113963657Y-131369100D01*
X114147366Y-131405642D01*
G37*
G36*
X95097366Y-131405642D02*
G01*
X95169047Y-131435334D01*
X95270420Y-131477323D01*
X95426163Y-131581388D01*
X95558612Y-131713837D01*
X95662677Y-131869580D01*
X95704666Y-131970953D01*
X95734358Y-132042634D01*
X95770900Y-132226343D01*
X95770900Y-132413657D01*
X95734358Y-132597366D01*
X95704666Y-132669047D01*
X95662677Y-132770420D01*
X95558612Y-132926163D01*
X95426163Y-133058612D01*
X95270420Y-133162677D01*
X95169047Y-133204666D01*
X95097366Y-133234358D01*
X94913657Y-133270900D01*
X94726343Y-133270900D01*
X94542634Y-133234358D01*
X94470953Y-133204666D01*
X94369580Y-133162677D01*
X94213837Y-133058612D01*
X94081388Y-132926163D01*
X93977323Y-132770420D01*
X93935334Y-132669047D01*
X93905642Y-132597366D01*
X93869100Y-132413657D01*
X93869100Y-132226343D01*
X93905642Y-132042634D01*
X93935334Y-131970953D01*
X93977323Y-131869580D01*
X94081388Y-131713837D01*
X94213837Y-131581388D01*
X94369580Y-131477323D01*
X94470953Y-131435334D01*
X94542634Y-131405642D01*
X94726343Y-131369100D01*
X94913657Y-131369100D01*
X95097366Y-131405642D01*
G37*
G36*
X106097366Y-131405642D02*
G01*
X106169047Y-131435334D01*
X106270420Y-131477323D01*
X106426163Y-131581388D01*
X106558612Y-131713837D01*
X106662677Y-131869580D01*
X106704666Y-131970953D01*
X106734358Y-132042634D01*
X106770900Y-132226343D01*
X106770900Y-132413657D01*
X106734358Y-132597366D01*
X106704666Y-132669047D01*
X106662677Y-132770420D01*
X106558612Y-132926163D01*
X106426163Y-133058612D01*
X106270420Y-133162677D01*
X106169047Y-133204666D01*
X106097366Y-133234358D01*
X105913657Y-133270900D01*
X105726343Y-133270900D01*
X105542634Y-133234358D01*
X105470953Y-133204666D01*
X105369580Y-133162677D01*
X105213837Y-133058612D01*
X105081388Y-132926163D01*
X104977323Y-132770420D01*
X104935334Y-132669047D01*
X104905642Y-132597366D01*
X104869100Y-132413657D01*
X104869100Y-132226343D01*
X104905642Y-132042634D01*
X104935334Y-131970953D01*
X104977323Y-131869580D01*
X105081388Y-131713837D01*
X105213837Y-131581388D01*
X105369580Y-131477323D01*
X105470953Y-131435334D01*
X105542634Y-131405642D01*
X105726343Y-131369100D01*
X105913657Y-131369100D01*
X106097366Y-131405642D01*
G37*
G36*
X125147366Y-131405642D02*
G01*
X125219047Y-131435334D01*
X125320420Y-131477323D01*
X125476163Y-131581388D01*
X125608612Y-131713837D01*
X125712677Y-131869580D01*
X125754666Y-131970953D01*
X125784358Y-132042634D01*
X125820900Y-132226343D01*
X125820900Y-132413657D01*
X125784358Y-132597366D01*
X125754666Y-132669047D01*
X125712677Y-132770420D01*
X125608612Y-132926163D01*
X125476163Y-133058612D01*
X125320420Y-133162677D01*
X125219047Y-133204666D01*
X125147366Y-133234358D01*
X124963657Y-133270900D01*
X124776343Y-133270900D01*
X124592634Y-133234358D01*
X124520953Y-133204666D01*
X124419580Y-133162677D01*
X124263837Y-133058612D01*
X124131388Y-132926163D01*
X124027323Y-132770420D01*
X123985334Y-132669047D01*
X123955642Y-132597366D01*
X123919100Y-132413657D01*
X123919100Y-132226343D01*
X123955642Y-132042634D01*
X123985334Y-131970953D01*
X124027323Y-131869580D01*
X124131388Y-131713837D01*
X124263837Y-131581388D01*
X124419580Y-131477323D01*
X124520953Y-131435334D01*
X124592634Y-131405642D01*
X124776343Y-131369100D01*
X124963657Y-131369100D01*
X125147366Y-131405642D01*
G37*
G36*
X76047366Y-131405642D02*
G01*
X76119047Y-131435334D01*
X76220420Y-131477323D01*
X76376163Y-131581388D01*
X76508612Y-131713837D01*
X76612677Y-131869580D01*
X76654666Y-131970953D01*
X76684358Y-132042634D01*
X76720900Y-132226343D01*
X76720900Y-132413657D01*
X76684358Y-132597366D01*
X76654666Y-132669047D01*
X76612677Y-132770420D01*
X76508612Y-132926163D01*
X76376163Y-133058612D01*
X76220420Y-133162677D01*
X76119047Y-133204666D01*
X76047366Y-133234358D01*
X75863657Y-133270900D01*
X75676343Y-133270900D01*
X75492634Y-133234358D01*
X75420953Y-133204666D01*
X75319580Y-133162677D01*
X75163837Y-133058612D01*
X75031388Y-132926163D01*
X74927323Y-132770420D01*
X74885334Y-132669047D01*
X74855642Y-132597366D01*
X74819100Y-132413657D01*
X74819100Y-132226343D01*
X74855642Y-132042634D01*
X74885334Y-131970953D01*
X74927323Y-131869580D01*
X75031388Y-131713837D01*
X75163837Y-131581388D01*
X75319580Y-131477323D01*
X75420953Y-131435334D01*
X75492634Y-131405642D01*
X75676343Y-131369100D01*
X75863657Y-131369100D01*
X76047366Y-131405642D01*
G37*
G36*
X87047366Y-131405642D02*
G01*
X87119047Y-131435334D01*
X87220420Y-131477323D01*
X87376163Y-131581388D01*
X87508612Y-131713837D01*
X87612677Y-131869580D01*
X87654666Y-131970953D01*
X87684358Y-132042634D01*
X87720900Y-132226343D01*
X87720900Y-132413657D01*
X87684358Y-132597366D01*
X87654666Y-132669047D01*
X87612677Y-132770420D01*
X87508612Y-132926163D01*
X87376163Y-133058612D01*
X87220420Y-133162677D01*
X87119047Y-133204666D01*
X87047366Y-133234358D01*
X86863657Y-133270900D01*
X86676343Y-133270900D01*
X86492634Y-133234358D01*
X86420953Y-133204666D01*
X86319580Y-133162677D01*
X86163837Y-133058612D01*
X86031388Y-132926163D01*
X85927323Y-132770420D01*
X85885334Y-132669047D01*
X85855642Y-132597366D01*
X85819100Y-132413657D01*
X85819100Y-132226343D01*
X85855642Y-132042634D01*
X85885334Y-131970953D01*
X85927323Y-131869580D01*
X86031388Y-131713837D01*
X86163837Y-131581388D01*
X86319580Y-131477323D01*
X86420953Y-131435334D01*
X86492634Y-131405642D01*
X86676343Y-131369100D01*
X86863657Y-131369100D01*
X87047366Y-131405642D01*
G37*
G36*
X110905000Y-131825000D02*
G01*
X109755000Y-131825000D01*
X109755000Y-130325000D01*
X110905000Y-130325000D01*
X110905000Y-131825000D01*
G37*
G36*
X91877000Y-131825000D02*
G01*
X90727000Y-131825000D01*
X90727000Y-130325000D01*
X91877000Y-130325000D01*
X91877000Y-131825000D01*
G37*
G36*
X72707000Y-131825000D02*
G01*
X71557000Y-131825000D01*
X71557000Y-130325000D01*
X72707000Y-130325000D01*
X72707000Y-131825000D01*
G37*
G36*
X86606137Y-127536138D02*
G01*
X86663642Y-127547577D01*
X86717811Y-127570015D01*
X86771981Y-127592452D01*
X86869479Y-127657598D01*
X86952402Y-127740521D01*
X87017548Y-127838019D01*
X87062423Y-127946359D01*
X87085300Y-128061367D01*
X87085300Y-128178633D01*
X87062423Y-128293641D01*
X87017548Y-128401981D01*
X86952402Y-128499479D01*
X86869479Y-128582402D01*
X86771981Y-128647548D01*
X86717811Y-128669986D01*
X86663642Y-128692423D01*
X86606137Y-128703862D01*
X86548633Y-128715300D01*
X86431367Y-128715300D01*
X86373863Y-128703862D01*
X86316358Y-128692423D01*
X86262189Y-128669986D01*
X86208019Y-128647548D01*
X86110521Y-128582402D01*
X86027598Y-128499479D01*
X85962452Y-128401981D01*
X85917577Y-128293641D01*
X85894700Y-128178633D01*
X85894700Y-128061367D01*
X85917577Y-127946359D01*
X85962452Y-127838019D01*
X86027598Y-127740521D01*
X86110521Y-127657598D01*
X86208019Y-127592452D01*
X86262189Y-127570015D01*
X86316358Y-127547577D01*
X86373863Y-127536138D01*
X86431367Y-127524700D01*
X86548633Y-127524700D01*
X86606137Y-127536138D01*
G37*
G36*
X105656137Y-127536138D02*
G01*
X105713642Y-127547577D01*
X105767811Y-127570015D01*
X105821981Y-127592452D01*
X105919479Y-127657598D01*
X106002402Y-127740521D01*
X106067548Y-127838019D01*
X106112423Y-127946359D01*
X106135300Y-128061367D01*
X106135300Y-128178633D01*
X106112423Y-128293641D01*
X106067548Y-128401981D01*
X106002402Y-128499479D01*
X105919479Y-128582402D01*
X105821981Y-128647548D01*
X105767811Y-128669986D01*
X105713642Y-128692423D01*
X105656137Y-128703862D01*
X105598633Y-128715300D01*
X105481367Y-128715300D01*
X105423863Y-128703862D01*
X105366358Y-128692423D01*
X105312189Y-128669986D01*
X105258019Y-128647548D01*
X105160521Y-128582402D01*
X105077598Y-128499479D01*
X105012452Y-128401981D01*
X104967577Y-128293641D01*
X104944700Y-128178633D01*
X104944700Y-128061367D01*
X104967577Y-127946359D01*
X105012452Y-127838019D01*
X105077598Y-127740521D01*
X105160521Y-127657598D01*
X105258019Y-127592452D01*
X105312189Y-127570015D01*
X105366358Y-127547577D01*
X105423863Y-127536138D01*
X105481367Y-127524700D01*
X105598633Y-127524700D01*
X105656137Y-127536138D01*
G37*
G36*
X124706137Y-127536138D02*
G01*
X124763642Y-127547577D01*
X124817811Y-127570015D01*
X124871981Y-127592452D01*
X124969479Y-127657598D01*
X125052402Y-127740521D01*
X125117548Y-127838019D01*
X125162423Y-127946359D01*
X125185300Y-128061367D01*
X125185300Y-128178633D01*
X125162423Y-128293641D01*
X125117548Y-128401981D01*
X125052402Y-128499479D01*
X124969479Y-128582402D01*
X124871981Y-128647548D01*
X124817811Y-128669986D01*
X124763642Y-128692423D01*
X124706137Y-128703862D01*
X124648633Y-128715300D01*
X124531367Y-128715300D01*
X124473863Y-128703862D01*
X124416358Y-128692423D01*
X124362189Y-128669986D01*
X124308019Y-128647548D01*
X124210521Y-128582402D01*
X124127598Y-128499479D01*
X124062452Y-128401981D01*
X124017577Y-128293641D01*
X123994700Y-128178633D01*
X123994700Y-128061367D01*
X124017577Y-127946359D01*
X124062452Y-127838019D01*
X124127598Y-127740521D01*
X124210521Y-127657598D01*
X124308019Y-127592452D01*
X124362189Y-127570015D01*
X124416358Y-127547577D01*
X124473863Y-127536138D01*
X124531367Y-127524700D01*
X124648633Y-127524700D01*
X124706137Y-127536138D01*
G37*
G36*
X110905000Y-128275000D02*
G01*
X109755000Y-128275000D01*
X109755000Y-126775000D01*
X110905000Y-126775000D01*
X110905000Y-128275000D01*
G37*
G36*
X91877000Y-128275000D02*
G01*
X90727000Y-128275000D01*
X90727000Y-126775000D01*
X91877000Y-126775000D01*
X91877000Y-128275000D01*
G37*
G36*
X72707000Y-128275000D02*
G01*
X71557000Y-128275000D01*
X71557000Y-126775000D01*
X72707000Y-126775000D01*
X72707000Y-128275000D01*
G37*
G36*
X111128500Y-126288500D02*
G01*
X109531500Y-126288500D01*
X109531500Y-124691500D01*
X111128500Y-124691500D01*
X111128500Y-126288500D01*
G37*
G36*
X72930500Y-126288500D02*
G01*
X71333500Y-126288500D01*
X71333500Y-124691500D01*
X72930500Y-124691500D01*
X72930500Y-126288500D01*
G37*
G36*
X92100500Y-126288500D02*
G01*
X90503500Y-126288500D01*
X90503500Y-124691500D01*
X92100500Y-124691500D01*
X92100500Y-126288500D01*
G37*
G36*
X69438026Y-121846115D02*
G01*
X69656411Y-121936573D01*
X69656413Y-121936574D01*
X69852955Y-122067899D01*
X70020101Y-122235045D01*
X70151427Y-122431589D01*
X70241885Y-122649974D01*
X70288000Y-122881809D01*
X70288000Y-123118191D01*
X70241885Y-123350026D01*
X70151427Y-123568411D01*
X70151426Y-123568413D01*
X70020101Y-123764955D01*
X69852955Y-123932101D01*
X69656413Y-124063426D01*
X69656412Y-124063427D01*
X69656411Y-124063427D01*
X69438026Y-124153885D01*
X69206191Y-124200000D01*
X68969809Y-124200000D01*
X68737974Y-124153885D01*
X68519589Y-124063427D01*
X68519588Y-124063427D01*
X68519587Y-124063426D01*
X68323045Y-123932101D01*
X68155899Y-123764955D01*
X68024574Y-123568413D01*
X68024573Y-123568411D01*
X67934115Y-123350026D01*
X67888000Y-123118191D01*
X67888000Y-122881809D01*
X67934115Y-122649974D01*
X68024573Y-122431589D01*
X68155899Y-122235045D01*
X68323045Y-122067899D01*
X68519587Y-121936574D01*
X68519589Y-121936573D01*
X68737974Y-121846115D01*
X68969809Y-121800000D01*
X69206191Y-121800000D01*
X69438026Y-121846115D01*
G37*
G36*
X52674026Y-121846115D02*
G01*
X52892411Y-121936573D01*
X52892413Y-121936574D01*
X53088955Y-122067899D01*
X53256101Y-122235045D01*
X53387427Y-122431589D01*
X53477885Y-122649974D01*
X53524000Y-122881809D01*
X53524000Y-123118191D01*
X53477885Y-123350026D01*
X53387427Y-123568411D01*
X53387426Y-123568413D01*
X53256101Y-123764955D01*
X53088955Y-123932101D01*
X52892413Y-124063426D01*
X52892412Y-124063427D01*
X52892411Y-124063427D01*
X52674026Y-124153885D01*
X52442191Y-124200000D01*
X52205809Y-124200000D01*
X51973974Y-124153885D01*
X51755589Y-124063427D01*
X51755588Y-124063427D01*
X51755587Y-124063426D01*
X51559045Y-123932101D01*
X51391899Y-123764955D01*
X51260574Y-123568413D01*
X51260573Y-123568411D01*
X51170115Y-123350026D01*
X51124000Y-123118191D01*
X51124000Y-122881809D01*
X51170115Y-122649974D01*
X51260573Y-122431589D01*
X51391899Y-122235045D01*
X51559045Y-122067899D01*
X51755587Y-121936574D01*
X51755589Y-121936573D01*
X51973974Y-121846115D01*
X52205809Y-121800000D01*
X52442191Y-121800000D01*
X52674026Y-121846115D01*
G37*
G36*
X59135720Y-119298512D02*
G01*
X59173869Y-119310084D01*
X59209024Y-119328875D01*
X59239837Y-119354163D01*
X59265125Y-119384976D01*
X59283916Y-119420131D01*
X59295488Y-119458280D01*
X59300000Y-119504089D01*
X59300000Y-121033911D01*
X59295488Y-121079720D01*
X59283916Y-121117869D01*
X59265125Y-121153024D01*
X59239837Y-121183837D01*
X59209024Y-121209125D01*
X59173869Y-121227916D01*
X59135720Y-121239488D01*
X59089911Y-121244000D01*
X57885089Y-121244000D01*
X57839280Y-121239488D01*
X57801131Y-121227916D01*
X57765976Y-121209125D01*
X57735163Y-121183837D01*
X57709875Y-121153024D01*
X57691084Y-121117869D01*
X57679512Y-121079720D01*
X57675000Y-121033911D01*
X57675000Y-119504089D01*
X57679512Y-119458280D01*
X57691084Y-119420131D01*
X57709875Y-119384976D01*
X57735163Y-119354163D01*
X57765976Y-119328875D01*
X57801131Y-119310084D01*
X57839280Y-119298512D01*
X57885089Y-119294000D01*
X59089911Y-119294000D01*
X59135720Y-119298512D01*
G37*
G36*
X56160720Y-119298512D02*
G01*
X56198869Y-119310084D01*
X56234024Y-119328875D01*
X56264837Y-119354163D01*
X56290125Y-119384976D01*
X56308916Y-119420131D01*
X56320488Y-119458280D01*
X56325000Y-119504089D01*
X56325000Y-121033911D01*
X56320488Y-121079720D01*
X56308916Y-121117869D01*
X56290125Y-121153024D01*
X56264837Y-121183837D01*
X56234024Y-121209125D01*
X56198869Y-121227916D01*
X56160720Y-121239488D01*
X56114911Y-121244000D01*
X54910089Y-121244000D01*
X54864280Y-121239488D01*
X54826131Y-121227916D01*
X54790976Y-121209125D01*
X54760163Y-121183837D01*
X54734875Y-121153024D01*
X54716084Y-121117869D01*
X54704512Y-121079720D01*
X54700000Y-121033911D01*
X54700000Y-119504089D01*
X54704512Y-119458280D01*
X54716084Y-119420131D01*
X54734875Y-119384976D01*
X54760163Y-119354163D01*
X54790976Y-119328875D01*
X54826131Y-119310084D01*
X54864280Y-119298512D01*
X54910089Y-119294000D01*
X56114911Y-119294000D01*
X56160720Y-119298512D01*
G37*
G36*
X119836703Y-117681486D02*
G01*
X120127883Y-117802097D01*
X120389940Y-117977198D01*
X120612802Y-118200060D01*
X120787903Y-118462117D01*
X120908514Y-118753297D01*
X120970000Y-119062412D01*
X120970000Y-119377588D01*
X120908514Y-119686703D01*
X120787903Y-119977883D01*
X120612802Y-120239940D01*
X120389940Y-120462802D01*
X120127883Y-120637903D01*
X119836703Y-120758514D01*
X119527588Y-120820000D01*
X119212412Y-120820000D01*
X118903297Y-120758514D01*
X118612117Y-120637903D01*
X118350060Y-120462802D01*
X118127198Y-120239940D01*
X117952097Y-119977883D01*
X117831486Y-119686703D01*
X117770000Y-119377588D01*
X117770000Y-119062412D01*
X117831486Y-118753297D01*
X117952097Y-118462117D01*
X118127198Y-118200060D01*
X118350060Y-117977198D01*
X118612117Y-117802097D01*
X118903297Y-117681486D01*
X119212412Y-117620000D01*
X119527588Y-117620000D01*
X119836703Y-117681486D01*
G37*
G36*
X81736703Y-117681486D02*
G01*
X82027883Y-117802097D01*
X82289940Y-117977198D01*
X82512802Y-118200060D01*
X82687903Y-118462117D01*
X82808514Y-118753297D01*
X82870000Y-119062412D01*
X82870000Y-119377588D01*
X82808514Y-119686703D01*
X82687903Y-119977883D01*
X82512802Y-120239940D01*
X82289940Y-120462802D01*
X82027883Y-120637903D01*
X81736703Y-120758514D01*
X81427588Y-120820000D01*
X81112412Y-120820000D01*
X80803297Y-120758514D01*
X80512117Y-120637903D01*
X80250060Y-120462802D01*
X80027198Y-120239940D01*
X79852097Y-119977883D01*
X79731486Y-119686703D01*
X79670000Y-119377588D01*
X79670000Y-119062412D01*
X79731486Y-118753297D01*
X79852097Y-118462117D01*
X80027198Y-118200060D01*
X80250060Y-117977198D01*
X80512117Y-117802097D01*
X80803297Y-117681486D01*
X81112412Y-117620000D01*
X81427588Y-117620000D01*
X81736703Y-117681486D01*
G37*
G36*
X100786703Y-117681486D02*
G01*
X101077883Y-117802097D01*
X101339940Y-117977198D01*
X101562802Y-118200060D01*
X101737903Y-118462117D01*
X101858514Y-118753297D01*
X101920000Y-119062412D01*
X101920000Y-119377588D01*
X101858514Y-119686703D01*
X101737903Y-119977883D01*
X101562802Y-120239940D01*
X101339940Y-120462802D01*
X101077883Y-120637903D01*
X100786703Y-120758514D01*
X100477588Y-120820000D01*
X100162412Y-120820000D01*
X99853297Y-120758514D01*
X99562117Y-120637903D01*
X99300060Y-120462802D01*
X99077198Y-120239940D01*
X98902097Y-119977883D01*
X98781486Y-119686703D01*
X98720000Y-119377588D01*
X98720000Y-119062412D01*
X98781486Y-118753297D01*
X98902097Y-118462117D01*
X99077198Y-118200060D01*
X99300060Y-117977198D01*
X99562117Y-117802097D01*
X99853297Y-117681486D01*
X100162412Y-117620000D01*
X100477588Y-117620000D01*
X100786703Y-117681486D01*
G37*
G36*
X76736703Y-115481486D02*
G01*
X77027883Y-115602097D01*
X77289940Y-115777198D01*
X77512802Y-116000060D01*
X77687903Y-116262117D01*
X77808514Y-116553297D01*
X77870000Y-116862412D01*
X77870000Y-117177588D01*
X77808514Y-117486703D01*
X77687903Y-117777883D01*
X77512802Y-118039940D01*
X77289940Y-118262802D01*
X77027883Y-118437903D01*
X76736703Y-118558514D01*
X76427588Y-118620000D01*
X76112412Y-118620000D01*
X75803297Y-118558514D01*
X75512117Y-118437903D01*
X75250060Y-118262802D01*
X75027198Y-118039940D01*
X74852097Y-117777883D01*
X74731486Y-117486703D01*
X74670000Y-117177588D01*
X74670000Y-116862412D01*
X74731486Y-116553297D01*
X74852097Y-116262117D01*
X75027198Y-116000060D01*
X75250060Y-115777198D01*
X75512117Y-115602097D01*
X75803297Y-115481486D01*
X76112412Y-115420000D01*
X76427588Y-115420000D01*
X76736703Y-115481486D01*
G37*
G36*
X95786703Y-115481486D02*
G01*
X96077883Y-115602097D01*
X96339940Y-115777198D01*
X96562802Y-116000060D01*
X96737903Y-116262117D01*
X96858514Y-116553297D01*
X96920000Y-116862412D01*
X96920000Y-117177588D01*
X96858514Y-117486703D01*
X96737903Y-117777883D01*
X96562802Y-118039940D01*
X96339940Y-118262802D01*
X96077883Y-118437903D01*
X95786703Y-118558514D01*
X95477588Y-118620000D01*
X95162412Y-118620000D01*
X94853297Y-118558514D01*
X94562117Y-118437903D01*
X94300060Y-118262802D01*
X94077198Y-118039940D01*
X93902097Y-117777883D01*
X93781486Y-117486703D01*
X93720000Y-117177588D01*
X93720000Y-116862412D01*
X93781486Y-116553297D01*
X93902097Y-116262117D01*
X94077198Y-116000060D01*
X94300060Y-115777198D01*
X94562117Y-115602097D01*
X94853297Y-115481486D01*
X95162412Y-115420000D01*
X95477588Y-115420000D01*
X95786703Y-115481486D01*
G37*
G36*
X114836703Y-115481486D02*
G01*
X115127883Y-115602097D01*
X115389940Y-115777198D01*
X115612802Y-116000060D01*
X115787903Y-116262117D01*
X115908514Y-116553297D01*
X115970000Y-116862412D01*
X115970000Y-117177588D01*
X115908514Y-117486703D01*
X115787903Y-117777883D01*
X115612802Y-118039940D01*
X115389940Y-118262802D01*
X115127883Y-118437903D01*
X114836703Y-118558514D01*
X114527588Y-118620000D01*
X114212412Y-118620000D01*
X113903297Y-118558514D01*
X113612117Y-118437903D01*
X113350060Y-118262802D01*
X113127198Y-118039940D01*
X112952097Y-117777883D01*
X112831486Y-117486703D01*
X112770000Y-117177588D01*
X112770000Y-116862412D01*
X112831486Y-116553297D01*
X112952097Y-116262117D01*
X113127198Y-116000060D01*
X113350060Y-115777198D01*
X113612117Y-115602097D01*
X113903297Y-115481486D01*
X114212412Y-115420000D01*
X114527588Y-115420000D01*
X114836703Y-115481486D01*
G37*
G36*
X60265336Y-115568254D02*
G01*
X60357105Y-115586508D01*
X60529994Y-115658121D01*
X60685590Y-115762087D01*
X60817913Y-115894410D01*
X60921879Y-116050006D01*
X60993492Y-116222895D01*
X61030000Y-116406433D01*
X61030000Y-116593567D01*
X60993492Y-116777105D01*
X60921879Y-116949994D01*
X60817913Y-117105590D01*
X60685590Y-117237913D01*
X60529994Y-117341879D01*
X60357105Y-117413492D01*
X60265336Y-117431746D01*
X60173568Y-117450000D01*
X59986432Y-117450000D01*
X59894664Y-117431746D01*
X59802895Y-117413492D01*
X59630006Y-117341879D01*
X59474410Y-117237913D01*
X59342087Y-117105590D01*
X59238121Y-116949994D01*
X59166508Y-116777105D01*
X59130000Y-116593567D01*
X59130000Y-116406433D01*
X59166508Y-116222895D01*
X59238121Y-116050006D01*
X59342087Y-115894410D01*
X59474410Y-115762087D01*
X59630006Y-115658121D01*
X59802895Y-115586508D01*
X59894664Y-115568254D01*
X59986432Y-115550000D01*
X60173568Y-115550000D01*
X60265336Y-115568254D01*
G37*
G36*
X55950000Y-117450000D02*
G01*
X54050000Y-117450000D01*
X54050000Y-115550000D01*
X55950000Y-115550000D01*
X55950000Y-117450000D01*
G37*
G36*
X65345336Y-115568254D02*
G01*
X65437105Y-115586508D01*
X65609994Y-115658121D01*
X65765590Y-115762087D01*
X65897913Y-115894410D01*
X66001879Y-116050006D01*
X66073492Y-116222895D01*
X66110000Y-116406433D01*
X66110000Y-116593567D01*
X66073492Y-116777105D01*
X66001879Y-116949994D01*
X65897913Y-117105590D01*
X65765590Y-117237913D01*
X65609994Y-117341879D01*
X65437105Y-117413492D01*
X65345336Y-117431746D01*
X65253568Y-117450000D01*
X65066432Y-117450000D01*
X64974664Y-117431746D01*
X64882895Y-117413492D01*
X64710006Y-117341879D01*
X64554410Y-117237913D01*
X64422087Y-117105590D01*
X64318121Y-116949994D01*
X64246508Y-116777105D01*
X64210000Y-116593567D01*
X64210000Y-116406433D01*
X64246508Y-116222895D01*
X64318121Y-116050006D01*
X64422087Y-115894410D01*
X64554410Y-115762087D01*
X64710006Y-115658121D01*
X64882895Y-115586508D01*
X64974664Y-115568254D01*
X65066432Y-115550000D01*
X65253568Y-115550000D01*
X65345336Y-115568254D01*
G37*
G36*
X57725336Y-115568254D02*
G01*
X57817105Y-115586508D01*
X57989994Y-115658121D01*
X58145590Y-115762087D01*
X58277913Y-115894410D01*
X58381879Y-116050006D01*
X58453492Y-116222895D01*
X58490000Y-116406433D01*
X58490000Y-116593567D01*
X58453492Y-116777105D01*
X58381879Y-116949994D01*
X58277913Y-117105590D01*
X58145590Y-117237913D01*
X57989994Y-117341879D01*
X57817105Y-117413492D01*
X57725336Y-117431746D01*
X57633568Y-117450000D01*
X57446432Y-117450000D01*
X57354664Y-117431746D01*
X57262895Y-117413492D01*
X57090006Y-117341879D01*
X56934410Y-117237913D01*
X56802087Y-117105590D01*
X56698121Y-116949994D01*
X56626508Y-116777105D01*
X56590000Y-116593567D01*
X56590000Y-116406433D01*
X56626508Y-116222895D01*
X56698121Y-116050006D01*
X56802087Y-115894410D01*
X56934410Y-115762087D01*
X57090006Y-115658121D01*
X57262895Y-115586508D01*
X57354664Y-115568254D01*
X57446432Y-115550000D01*
X57633568Y-115550000D01*
X57725336Y-115568254D01*
G37*
G36*
X62805336Y-115568254D02*
G01*
X62897105Y-115586508D01*
X63069994Y-115658121D01*
X63225590Y-115762087D01*
X63357913Y-115894410D01*
X63461879Y-116050006D01*
X63533492Y-116222895D01*
X63570000Y-116406433D01*
X63570000Y-116593567D01*
X63533492Y-116777105D01*
X63461879Y-116949994D01*
X63357913Y-117105590D01*
X63225590Y-117237913D01*
X63069994Y-117341879D01*
X62897105Y-117413492D01*
X62805336Y-117431746D01*
X62713568Y-117450000D01*
X62526432Y-117450000D01*
X62434664Y-117431746D01*
X62342895Y-117413492D01*
X62170006Y-117341879D01*
X62014410Y-117237913D01*
X61882087Y-117105590D01*
X61778121Y-116949994D01*
X61706508Y-116777105D01*
X61670000Y-116593567D01*
X61670000Y-116406433D01*
X61706508Y-116222895D01*
X61778121Y-116050006D01*
X61882087Y-115894410D01*
X62014410Y-115762087D01*
X62170006Y-115658121D01*
X62342895Y-115586508D01*
X62434664Y-115568254D01*
X62526432Y-115550000D01*
X62713568Y-115550000D01*
X62805336Y-115568254D01*
G37*
G36*
X100849270Y-111525230D02*
G01*
X101179488Y-111662011D01*
X101476677Y-111860586D01*
X101729414Y-112113323D01*
X101927989Y-112410512D01*
X102064770Y-112740730D01*
X102064770Y-112740731D01*
X102118630Y-113011500D01*
X102134500Y-113091287D01*
X102134500Y-113448713D01*
X102064770Y-113799270D01*
X101927989Y-114129488D01*
X101729414Y-114426677D01*
X101476677Y-114679414D01*
X101179488Y-114877989D01*
X100849270Y-115014770D01*
X100673991Y-115049635D01*
X100498714Y-115084500D01*
X100141286Y-115084500D01*
X99966009Y-115049635D01*
X99790730Y-115014770D01*
X99460512Y-114877989D01*
X99163323Y-114679414D01*
X98910586Y-114426677D01*
X98712011Y-114129488D01*
X98575230Y-113799270D01*
X98505500Y-113448713D01*
X98505500Y-113091287D01*
X98521371Y-113011500D01*
X98575230Y-112740731D01*
X98575230Y-112740730D01*
X98712011Y-112410512D01*
X98910586Y-112113323D01*
X99163323Y-111860586D01*
X99460512Y-111662011D01*
X99790730Y-111525230D01*
X100141286Y-111455500D01*
X100498714Y-111455500D01*
X100849270Y-111525230D01*
G37*
G36*
X81799270Y-111525230D02*
G01*
X82129488Y-111662011D01*
X82426677Y-111860586D01*
X82679414Y-112113323D01*
X82877989Y-112410512D01*
X83014770Y-112740730D01*
X83014770Y-112740731D01*
X83068630Y-113011500D01*
X83084500Y-113091287D01*
X83084500Y-113448713D01*
X83014770Y-113799270D01*
X82877989Y-114129488D01*
X82679414Y-114426677D01*
X82426677Y-114679414D01*
X82129488Y-114877989D01*
X81799270Y-115014770D01*
X81623991Y-115049635D01*
X81448714Y-115084500D01*
X81091286Y-115084500D01*
X80916009Y-115049635D01*
X80740730Y-115014770D01*
X80410512Y-114877989D01*
X80113323Y-114679414D01*
X79860586Y-114426677D01*
X79662011Y-114129488D01*
X79525230Y-113799270D01*
X79455500Y-113448713D01*
X79455500Y-113091287D01*
X79471371Y-113011500D01*
X79525230Y-112740731D01*
X79525230Y-112740730D01*
X79662011Y-112410512D01*
X79860586Y-112113323D01*
X80113323Y-111860586D01*
X80410512Y-111662011D01*
X80740730Y-111525230D01*
X81091286Y-111455500D01*
X81448714Y-111455500D01*
X81799270Y-111525230D01*
G37*
G36*
X119899270Y-111525230D02*
G01*
X120229488Y-111662011D01*
X120526677Y-111860586D01*
X120779414Y-112113323D01*
X120977989Y-112410512D01*
X121114770Y-112740730D01*
X121114770Y-112740731D01*
X121168630Y-113011500D01*
X121184500Y-113091287D01*
X121184500Y-113448713D01*
X121114770Y-113799270D01*
X120977989Y-114129488D01*
X120779414Y-114426677D01*
X120526677Y-114679414D01*
X120229488Y-114877989D01*
X119899270Y-115014770D01*
X119723991Y-115049635D01*
X119548714Y-115084500D01*
X119191286Y-115084500D01*
X119016009Y-115049635D01*
X118840730Y-115014770D01*
X118510512Y-114877989D01*
X118213323Y-114679414D01*
X117960586Y-114426677D01*
X117762011Y-114129488D01*
X117625230Y-113799270D01*
X117555500Y-113448713D01*
X117555500Y-113091287D01*
X117571371Y-113011500D01*
X117625230Y-112740731D01*
X117625230Y-112740730D01*
X117762011Y-112410512D01*
X117960586Y-112113323D01*
X118213323Y-111860586D01*
X118510512Y-111662011D01*
X118840730Y-111525230D01*
X119191286Y-111455500D01*
X119548714Y-111455500D01*
X119899270Y-111525230D01*
G37*
G36*
X72291370Y-113032955D02*
G01*
X72362914Y-113047186D01*
X72508232Y-113107378D01*
X72639014Y-113194764D01*
X72750236Y-113305986D01*
X72837622Y-113436768D01*
X72883433Y-113547367D01*
X72897814Y-113582087D01*
X72927506Y-113731355D01*
X72928500Y-113736355D01*
X72928500Y-113893645D01*
X72897814Y-114047914D01*
X72837622Y-114193232D01*
X72750236Y-114324014D01*
X72639014Y-114435236D01*
X72508232Y-114522622D01*
X72362914Y-114582814D01*
X72311491Y-114593043D01*
X72208647Y-114613500D01*
X72051353Y-114613500D01*
X71948509Y-114593043D01*
X71897086Y-114582814D01*
X71751768Y-114522622D01*
X71620986Y-114435236D01*
X71509764Y-114324014D01*
X71422378Y-114193232D01*
X71362186Y-114047914D01*
X71331500Y-113893645D01*
X71331500Y-113736355D01*
X71332495Y-113731355D01*
X71362186Y-113582087D01*
X71376567Y-113547367D01*
X71422378Y-113436768D01*
X71509764Y-113305986D01*
X71620986Y-113194764D01*
X71751768Y-113107378D01*
X71897086Y-113047186D01*
X71968630Y-113032955D01*
X72051353Y-113016500D01*
X72208647Y-113016500D01*
X72291370Y-113032955D01*
G37*
G36*
X110513491Y-113031957D02*
G01*
X110564914Y-113042186D01*
X110710232Y-113102378D01*
X110841014Y-113189764D01*
X110952236Y-113300986D01*
X111039622Y-113431768D01*
X111099814Y-113577086D01*
X111100809Y-113582087D01*
X111130500Y-113731353D01*
X111130500Y-113888647D01*
X111129505Y-113893647D01*
X111099814Y-114042914D01*
X111039622Y-114188232D01*
X110952236Y-114319014D01*
X110841014Y-114430236D01*
X110710232Y-114517622D01*
X110564914Y-114577814D01*
X110539777Y-114582814D01*
X110410647Y-114608500D01*
X110253353Y-114608500D01*
X110124223Y-114582814D01*
X110099086Y-114577814D01*
X109953768Y-114517622D01*
X109822986Y-114430236D01*
X109711764Y-114319014D01*
X109624378Y-114188232D01*
X109564186Y-114042914D01*
X109534495Y-113893647D01*
X109533500Y-113888647D01*
X109533500Y-113731353D01*
X109563191Y-113582087D01*
X109564186Y-113577086D01*
X109624378Y-113431768D01*
X109711764Y-113300986D01*
X109822986Y-113189764D01*
X109953768Y-113102378D01*
X110099086Y-113042186D01*
X110150509Y-113031957D01*
X110253353Y-113011500D01*
X110410647Y-113011500D01*
X110513491Y-113031957D01*
G37*
G36*
X91483491Y-113031957D02*
G01*
X91534914Y-113042186D01*
X91680232Y-113102378D01*
X91811014Y-113189764D01*
X91922236Y-113300986D01*
X92009622Y-113431768D01*
X92069814Y-113577086D01*
X92070809Y-113582087D01*
X92100500Y-113731353D01*
X92100500Y-113888647D01*
X92099505Y-113893647D01*
X92069814Y-114042914D01*
X92009622Y-114188232D01*
X91922236Y-114319014D01*
X91811014Y-114430236D01*
X91680232Y-114517622D01*
X91534914Y-114577814D01*
X91509777Y-114582814D01*
X91380647Y-114608500D01*
X91223353Y-114608500D01*
X91094223Y-114582814D01*
X91069086Y-114577814D01*
X90923768Y-114517622D01*
X90792986Y-114430236D01*
X90681764Y-114319014D01*
X90594378Y-114188232D01*
X90534186Y-114042914D01*
X90504495Y-113893647D01*
X90503500Y-113888647D01*
X90503500Y-113731353D01*
X90533191Y-113582087D01*
X90534186Y-113577086D01*
X90594378Y-113431768D01*
X90681764Y-113300986D01*
X90792986Y-113189764D01*
X90923768Y-113102378D01*
X91069086Y-113042186D01*
X91120509Y-113031957D01*
X91223353Y-113011500D01*
X91380647Y-113011500D01*
X91483491Y-113031957D01*
G37*
G36*
X76047366Y-112355642D02*
G01*
X76119047Y-112385334D01*
X76220420Y-112427323D01*
X76376163Y-112531388D01*
X76508612Y-112663837D01*
X76612677Y-112819580D01*
X76619649Y-112836413D01*
X76684358Y-112992634D01*
X76720900Y-113176343D01*
X76720900Y-113363657D01*
X76684358Y-113547366D01*
X76672047Y-113577086D01*
X76612677Y-113720420D01*
X76508612Y-113876163D01*
X76376163Y-114008612D01*
X76220420Y-114112677D01*
X76119047Y-114154666D01*
X76047366Y-114184358D01*
X75863657Y-114220900D01*
X75676343Y-114220900D01*
X75492634Y-114184358D01*
X75420953Y-114154666D01*
X75319580Y-114112677D01*
X75163837Y-114008612D01*
X75031388Y-113876163D01*
X74927323Y-113720420D01*
X74867953Y-113577086D01*
X74855642Y-113547366D01*
X74819100Y-113363657D01*
X74819100Y-113176343D01*
X74855642Y-112992634D01*
X74920351Y-112836413D01*
X74927323Y-112819580D01*
X75031388Y-112663837D01*
X75163837Y-112531388D01*
X75319580Y-112427323D01*
X75420953Y-112385334D01*
X75492634Y-112355642D01*
X75676343Y-112319100D01*
X75863657Y-112319100D01*
X76047366Y-112355642D01*
G37*
G36*
X87047366Y-112355642D02*
G01*
X87119047Y-112385334D01*
X87220420Y-112427323D01*
X87376163Y-112531388D01*
X87508612Y-112663837D01*
X87612677Y-112819580D01*
X87619649Y-112836413D01*
X87684358Y-112992634D01*
X87720900Y-113176343D01*
X87720900Y-113363657D01*
X87684358Y-113547366D01*
X87672047Y-113577086D01*
X87612677Y-113720420D01*
X87508612Y-113876163D01*
X87376163Y-114008612D01*
X87220420Y-114112677D01*
X87119047Y-114154666D01*
X87047366Y-114184358D01*
X86863657Y-114220900D01*
X86676343Y-114220900D01*
X86492634Y-114184358D01*
X86420953Y-114154666D01*
X86319580Y-114112677D01*
X86163837Y-114008612D01*
X86031388Y-113876163D01*
X85927323Y-113720420D01*
X85867953Y-113577086D01*
X85855642Y-113547366D01*
X85819100Y-113363657D01*
X85819100Y-113176343D01*
X85855642Y-112992634D01*
X85920351Y-112836413D01*
X85927323Y-112819580D01*
X86031388Y-112663837D01*
X86163837Y-112531388D01*
X86319580Y-112427323D01*
X86420953Y-112385334D01*
X86492634Y-112355642D01*
X86676343Y-112319100D01*
X86863657Y-112319100D01*
X87047366Y-112355642D01*
G37*
G36*
X106097366Y-112355642D02*
G01*
X106169047Y-112385334D01*
X106270420Y-112427323D01*
X106426163Y-112531388D01*
X106558612Y-112663837D01*
X106662677Y-112819580D01*
X106669649Y-112836413D01*
X106734358Y-112992634D01*
X106770900Y-113176343D01*
X106770900Y-113363657D01*
X106734358Y-113547366D01*
X106722047Y-113577086D01*
X106662677Y-113720420D01*
X106558612Y-113876163D01*
X106426163Y-114008612D01*
X106270420Y-114112677D01*
X106169047Y-114154666D01*
X106097366Y-114184358D01*
X105913657Y-114220900D01*
X105726343Y-114220900D01*
X105542634Y-114184358D01*
X105470953Y-114154666D01*
X105369580Y-114112677D01*
X105213837Y-114008612D01*
X105081388Y-113876163D01*
X104977323Y-113720420D01*
X104917953Y-113577086D01*
X104905642Y-113547366D01*
X104869100Y-113363657D01*
X104869100Y-113176343D01*
X104905642Y-112992634D01*
X104970351Y-112836413D01*
X104977323Y-112819580D01*
X105081388Y-112663837D01*
X105213837Y-112531388D01*
X105369580Y-112427323D01*
X105470953Y-112385334D01*
X105542634Y-112355642D01*
X105726343Y-112319100D01*
X105913657Y-112319100D01*
X106097366Y-112355642D01*
G37*
G36*
X95097366Y-112355642D02*
G01*
X95169047Y-112385334D01*
X95270420Y-112427323D01*
X95426163Y-112531388D01*
X95558612Y-112663837D01*
X95662677Y-112819580D01*
X95669649Y-112836413D01*
X95734358Y-112992634D01*
X95770900Y-113176343D01*
X95770900Y-113363657D01*
X95734358Y-113547366D01*
X95722047Y-113577086D01*
X95662677Y-113720420D01*
X95558612Y-113876163D01*
X95426163Y-114008612D01*
X95270420Y-114112677D01*
X95169047Y-114154666D01*
X95097366Y-114184358D01*
X94913657Y-114220900D01*
X94726343Y-114220900D01*
X94542634Y-114184358D01*
X94470953Y-114154666D01*
X94369580Y-114112677D01*
X94213837Y-114008612D01*
X94081388Y-113876163D01*
X93977323Y-113720420D01*
X93917953Y-113577086D01*
X93905642Y-113547366D01*
X93869100Y-113363657D01*
X93869100Y-113176343D01*
X93905642Y-112992634D01*
X93970351Y-112836413D01*
X93977323Y-112819580D01*
X94081388Y-112663837D01*
X94213837Y-112531388D01*
X94369580Y-112427323D01*
X94470953Y-112385334D01*
X94542634Y-112355642D01*
X94726343Y-112319100D01*
X94913657Y-112319100D01*
X95097366Y-112355642D01*
G37*
G36*
X114147366Y-112355642D02*
G01*
X114219047Y-112385334D01*
X114320420Y-112427323D01*
X114476163Y-112531388D01*
X114608612Y-112663837D01*
X114712677Y-112819580D01*
X114719649Y-112836413D01*
X114784358Y-112992634D01*
X114820900Y-113176343D01*
X114820900Y-113363657D01*
X114784358Y-113547366D01*
X114772047Y-113577086D01*
X114712677Y-113720420D01*
X114608612Y-113876163D01*
X114476163Y-114008612D01*
X114320420Y-114112677D01*
X114219047Y-114154666D01*
X114147366Y-114184358D01*
X113963657Y-114220900D01*
X113776343Y-114220900D01*
X113592634Y-114184358D01*
X113520953Y-114154666D01*
X113419580Y-114112677D01*
X113263837Y-114008612D01*
X113131388Y-113876163D01*
X113027323Y-113720420D01*
X112967953Y-113577086D01*
X112955642Y-113547366D01*
X112919100Y-113363657D01*
X112919100Y-113176343D01*
X112955642Y-112992634D01*
X113020351Y-112836413D01*
X113027323Y-112819580D01*
X113131388Y-112663837D01*
X113263837Y-112531388D01*
X113419580Y-112427323D01*
X113520953Y-112385334D01*
X113592634Y-112355642D01*
X113776343Y-112319100D01*
X113963657Y-112319100D01*
X114147366Y-112355642D01*
G37*
G36*
X125147366Y-112355642D02*
G01*
X125219047Y-112385334D01*
X125320420Y-112427323D01*
X125476163Y-112531388D01*
X125608612Y-112663837D01*
X125712677Y-112819580D01*
X125719649Y-112836413D01*
X125784358Y-112992634D01*
X125820900Y-113176343D01*
X125820900Y-113363657D01*
X125784358Y-113547366D01*
X125772047Y-113577086D01*
X125712677Y-113720420D01*
X125608612Y-113876163D01*
X125476163Y-114008612D01*
X125320420Y-114112677D01*
X125219047Y-114154666D01*
X125147366Y-114184358D01*
X124963657Y-114220900D01*
X124776343Y-114220900D01*
X124592634Y-114184358D01*
X124520953Y-114154666D01*
X124419580Y-114112677D01*
X124263837Y-114008612D01*
X124131388Y-113876163D01*
X124027323Y-113720420D01*
X123967953Y-113577086D01*
X123955642Y-113547366D01*
X123919100Y-113363657D01*
X123919100Y-113176343D01*
X123955642Y-112992634D01*
X124020351Y-112836413D01*
X124027323Y-112819580D01*
X124131388Y-112663837D01*
X124263837Y-112531388D01*
X124419580Y-112427323D01*
X124520953Y-112385334D01*
X124592634Y-112355642D01*
X124776343Y-112319100D01*
X124963657Y-112319100D01*
X125147366Y-112355642D01*
G37*
G36*
X56827336Y-111590254D02*
G01*
X56919105Y-111608508D01*
X57091994Y-111680121D01*
X57247590Y-111784087D01*
X57379913Y-111916410D01*
X57483879Y-112072006D01*
X57516106Y-112149810D01*
X57555492Y-112244896D01*
X57592000Y-112428432D01*
X57592000Y-112615568D01*
X57573746Y-112707336D01*
X57555492Y-112799105D01*
X57483879Y-112971994D01*
X57379913Y-113127590D01*
X57247590Y-113259913D01*
X57091994Y-113363879D01*
X56919105Y-113435492D01*
X56827336Y-113453746D01*
X56735568Y-113472000D01*
X56548432Y-113472000D01*
X56456664Y-113453746D01*
X56364895Y-113435492D01*
X56192006Y-113363879D01*
X56036410Y-113259913D01*
X55904087Y-113127590D01*
X55800121Y-112971994D01*
X55728508Y-112799105D01*
X55710254Y-112707336D01*
X55692000Y-112615568D01*
X55692000Y-112428432D01*
X55728508Y-112244896D01*
X55767894Y-112149810D01*
X55800121Y-112072006D01*
X55904087Y-111916410D01*
X56036410Y-111784087D01*
X56192006Y-111680121D01*
X56364895Y-111608508D01*
X56456664Y-111590254D01*
X56548432Y-111572000D01*
X56735568Y-111572000D01*
X56827336Y-111590254D01*
G37*
G36*
X59367336Y-111590254D02*
G01*
X59459105Y-111608508D01*
X59631994Y-111680121D01*
X59787590Y-111784087D01*
X59919913Y-111916410D01*
X60023879Y-112072006D01*
X60056106Y-112149810D01*
X60095492Y-112244896D01*
X60132000Y-112428432D01*
X60132000Y-112615568D01*
X60113746Y-112707336D01*
X60095492Y-112799105D01*
X60023879Y-112971994D01*
X59919913Y-113127590D01*
X59787590Y-113259913D01*
X59631994Y-113363879D01*
X59459105Y-113435492D01*
X59367336Y-113453746D01*
X59275568Y-113472000D01*
X59088432Y-113472000D01*
X58996664Y-113453746D01*
X58904895Y-113435492D01*
X58732006Y-113363879D01*
X58576410Y-113259913D01*
X58444087Y-113127590D01*
X58340121Y-112971994D01*
X58268508Y-112799105D01*
X58250254Y-112707336D01*
X58232000Y-112615568D01*
X58232000Y-112428432D01*
X58268508Y-112244896D01*
X58307894Y-112149810D01*
X58340121Y-112072006D01*
X58444087Y-111916410D01*
X58576410Y-111784087D01*
X58732006Y-111680121D01*
X58904895Y-111608508D01*
X58996664Y-111590254D01*
X59088432Y-111572000D01*
X59275568Y-111572000D01*
X59367336Y-111590254D01*
G37*
G36*
X65212000Y-113472000D02*
G01*
X63312000Y-113472000D01*
X63312000Y-111572000D01*
X65212000Y-111572000D01*
X65212000Y-113472000D01*
G37*
G36*
X61907336Y-111590254D02*
G01*
X61999105Y-111608508D01*
X62171994Y-111680121D01*
X62327590Y-111784087D01*
X62459913Y-111916410D01*
X62563879Y-112072006D01*
X62596106Y-112149810D01*
X62635492Y-112244896D01*
X62672000Y-112428432D01*
X62672000Y-112615568D01*
X62653746Y-112707336D01*
X62635492Y-112799105D01*
X62563879Y-112971994D01*
X62459913Y-113127590D01*
X62327590Y-113259913D01*
X62171994Y-113363879D01*
X61999105Y-113435492D01*
X61907336Y-113453746D01*
X61815568Y-113472000D01*
X61628432Y-113472000D01*
X61536664Y-113453746D01*
X61444895Y-113435492D01*
X61272006Y-113363879D01*
X61116410Y-113259913D01*
X60984087Y-113127590D01*
X60880121Y-112971994D01*
X60808508Y-112799105D01*
X60790254Y-112707336D01*
X60772000Y-112615568D01*
X60772000Y-112428432D01*
X60808508Y-112244896D01*
X60847894Y-112149810D01*
X60880121Y-112072006D01*
X60984087Y-111916410D01*
X61116410Y-111784087D01*
X61272006Y-111680121D01*
X61444895Y-111608508D01*
X61536664Y-111590254D01*
X61628432Y-111572000D01*
X61815568Y-111572000D01*
X61907336Y-111590254D01*
G37*
G36*
X52674026Y-111114115D02*
G01*
X52892411Y-111204573D01*
X52892413Y-111204574D01*
X53088955Y-111335899D01*
X53256101Y-111503045D01*
X53363630Y-111663973D01*
X53387427Y-111699589D01*
X53477885Y-111917974D01*
X53524000Y-112149809D01*
X53524000Y-112386191D01*
X53477885Y-112618026D01*
X53394398Y-112819582D01*
X53387426Y-112836413D01*
X53256101Y-113032955D01*
X53088955Y-113200101D01*
X52892413Y-113331426D01*
X52892412Y-113331427D01*
X52892411Y-113331427D01*
X52674026Y-113421885D01*
X52442191Y-113468000D01*
X52205809Y-113468000D01*
X51973974Y-113421885D01*
X51755589Y-113331427D01*
X51755588Y-113331427D01*
X51755587Y-113331426D01*
X51559045Y-113200101D01*
X51391899Y-113032955D01*
X51260574Y-112836413D01*
X51253602Y-112819582D01*
X51170115Y-112618026D01*
X51124000Y-112386191D01*
X51124000Y-112149809D01*
X51170115Y-111917974D01*
X51260573Y-111699589D01*
X51284371Y-111663973D01*
X51391899Y-111503045D01*
X51559045Y-111335899D01*
X51755587Y-111204574D01*
X51755589Y-111204573D01*
X51973974Y-111114115D01*
X52205809Y-111068000D01*
X52442191Y-111068000D01*
X52674026Y-111114115D01*
G37*
G36*
X69438026Y-110860115D02*
G01*
X69656411Y-110950573D01*
X69656413Y-110950574D01*
X69832154Y-111068000D01*
X69852955Y-111081899D01*
X70020101Y-111249045D01*
X70151427Y-111445589D01*
X70241885Y-111663974D01*
X70288000Y-111895809D01*
X70288000Y-112132191D01*
X70241885Y-112364026D01*
X70175207Y-112525000D01*
X70151426Y-112582413D01*
X70020101Y-112778955D01*
X69852955Y-112946101D01*
X69656413Y-113077426D01*
X69656412Y-113077427D01*
X69656411Y-113077427D01*
X69438026Y-113167885D01*
X69206191Y-113214000D01*
X68969809Y-113214000D01*
X68737974Y-113167885D01*
X68519589Y-113077427D01*
X68519588Y-113077427D01*
X68519587Y-113077426D01*
X68323045Y-112946101D01*
X68155899Y-112778955D01*
X68024574Y-112582413D01*
X68000793Y-112525000D01*
X67934115Y-112364026D01*
X67888000Y-112132191D01*
X67888000Y-111895809D01*
X67934115Y-111663974D01*
X68024573Y-111445589D01*
X68155899Y-111249045D01*
X68323045Y-111081899D01*
X68343846Y-111068000D01*
X68519587Y-110950574D01*
X68519589Y-110950573D01*
X68737974Y-110860115D01*
X68969809Y-110814000D01*
X69206191Y-110814000D01*
X69438026Y-110860115D01*
G37*
G36*
X72705000Y-112530000D02*
G01*
X71555000Y-112530000D01*
X71555000Y-111030000D01*
X72705000Y-111030000D01*
X72705000Y-112530000D01*
G37*
G36*
X110907000Y-112525000D02*
G01*
X109757000Y-112525000D01*
X109757000Y-111025000D01*
X110907000Y-111025000D01*
X110907000Y-112525000D01*
G37*
G36*
X91877000Y-112525000D02*
G01*
X90727000Y-112525000D01*
X90727000Y-111025000D01*
X91877000Y-111025000D01*
X91877000Y-112525000D01*
G37*
G36*
X105656137Y-108486139D02*
G01*
X105713642Y-108497577D01*
X105767811Y-108520014D01*
X105821981Y-108542452D01*
X105919479Y-108607598D01*
X106002402Y-108690521D01*
X106067548Y-108788019D01*
X106112423Y-108896359D01*
X106135300Y-109011367D01*
X106135300Y-109128633D01*
X106112423Y-109243641D01*
X106067548Y-109351981D01*
X106002402Y-109449479D01*
X105919479Y-109532402D01*
X105821981Y-109597548D01*
X105767811Y-109619985D01*
X105713642Y-109642423D01*
X105656137Y-109653862D01*
X105598633Y-109665300D01*
X105481367Y-109665300D01*
X105423863Y-109653862D01*
X105366358Y-109642423D01*
X105312189Y-109619985D01*
X105258019Y-109597548D01*
X105160521Y-109532402D01*
X105077598Y-109449479D01*
X105012452Y-109351981D01*
X104967577Y-109243641D01*
X104944700Y-109128633D01*
X104944700Y-109011367D01*
X104967577Y-108896359D01*
X105012452Y-108788019D01*
X105077598Y-108690521D01*
X105160521Y-108607598D01*
X105258019Y-108542452D01*
X105312189Y-108520015D01*
X105366358Y-108497577D01*
X105423863Y-108486139D01*
X105481367Y-108474700D01*
X105598633Y-108474700D01*
X105656137Y-108486139D01*
G37*
G36*
X124706137Y-108486139D02*
G01*
X124763642Y-108497577D01*
X124817811Y-108520014D01*
X124871981Y-108542452D01*
X124969479Y-108607598D01*
X125052402Y-108690521D01*
X125117548Y-108788019D01*
X125162423Y-108896359D01*
X125185300Y-109011367D01*
X125185300Y-109128633D01*
X125162423Y-109243641D01*
X125117548Y-109351981D01*
X125052402Y-109449479D01*
X124969479Y-109532402D01*
X124871981Y-109597548D01*
X124817811Y-109619985D01*
X124763642Y-109642423D01*
X124706137Y-109653862D01*
X124648633Y-109665300D01*
X124531367Y-109665300D01*
X124473863Y-109653862D01*
X124416358Y-109642423D01*
X124362189Y-109619985D01*
X124308019Y-109597548D01*
X124210521Y-109532402D01*
X124127598Y-109449479D01*
X124062452Y-109351981D01*
X124017577Y-109243641D01*
X123994700Y-109128633D01*
X123994700Y-109011367D01*
X124017577Y-108896359D01*
X124062452Y-108788019D01*
X124127598Y-108690521D01*
X124210521Y-108607598D01*
X124308019Y-108542452D01*
X124362189Y-108520015D01*
X124416358Y-108497577D01*
X124473863Y-108486139D01*
X124531367Y-108474700D01*
X124648633Y-108474700D01*
X124706137Y-108486139D01*
G37*
G36*
X86606137Y-108486139D02*
G01*
X86663642Y-108497577D01*
X86717811Y-108520014D01*
X86771981Y-108542452D01*
X86869479Y-108607598D01*
X86952402Y-108690521D01*
X87017548Y-108788019D01*
X87062423Y-108896359D01*
X87085300Y-109011367D01*
X87085300Y-109128633D01*
X87062423Y-109243641D01*
X87017548Y-109351981D01*
X86952402Y-109449479D01*
X86869479Y-109532402D01*
X86771981Y-109597548D01*
X86717811Y-109619985D01*
X86663642Y-109642423D01*
X86606137Y-109653862D01*
X86548633Y-109665300D01*
X86431367Y-109665300D01*
X86373863Y-109653862D01*
X86316358Y-109642423D01*
X86262189Y-109619985D01*
X86208019Y-109597548D01*
X86110521Y-109532402D01*
X86027598Y-109449479D01*
X85962452Y-109351981D01*
X85917577Y-109243641D01*
X85894700Y-109128633D01*
X85894700Y-109011367D01*
X85917577Y-108896359D01*
X85962452Y-108788019D01*
X86027598Y-108690521D01*
X86110521Y-108607598D01*
X86208019Y-108542452D01*
X86262189Y-108520015D01*
X86316358Y-108497577D01*
X86373863Y-108486139D01*
X86431367Y-108474700D01*
X86548633Y-108474700D01*
X86606137Y-108486139D01*
G37*
G36*
X72705000Y-108980000D02*
G01*
X71555000Y-108980000D01*
X71555000Y-107480000D01*
X72705000Y-107480000D01*
X72705000Y-108980000D01*
G37*
G36*
X91877000Y-108975000D02*
G01*
X90727000Y-108975000D01*
X90727000Y-107475000D01*
X91877000Y-107475000D01*
X91877000Y-108975000D01*
G37*
G36*
X110907000Y-108975000D02*
G01*
X109757000Y-108975000D01*
X109757000Y-107475000D01*
X110907000Y-107475000D01*
X110907000Y-108975000D01*
G37*
G36*
X72928500Y-106993500D02*
G01*
X71331500Y-106993500D01*
X71331500Y-105396500D01*
X72928500Y-105396500D01*
X72928500Y-106993500D01*
G37*
G36*
X92100500Y-106988500D02*
G01*
X90503500Y-106988500D01*
X90503500Y-105391500D01*
X92100500Y-105391500D01*
X92100500Y-106988500D01*
G37*
G36*
X111130500Y-106988500D02*
G01*
X109533500Y-106988500D01*
X109533500Y-105391500D01*
X111130500Y-105391500D01*
X111130500Y-106988500D01*
G37*
G36*
X72600026Y-101596115D02*
G01*
X72818411Y-101686573D01*
X72818413Y-101686574D01*
X72943269Y-101770000D01*
X73014955Y-101817899D01*
X73182101Y-101985045D01*
X73313427Y-102181589D01*
X73403885Y-102399974D01*
X73450000Y-102631809D01*
X73450000Y-102868191D01*
X73403885Y-103100026D01*
X73313427Y-103318411D01*
X73313426Y-103318413D01*
X73182101Y-103514955D01*
X73014955Y-103682101D01*
X72818413Y-103813426D01*
X72818412Y-103813427D01*
X72818411Y-103813427D01*
X72600026Y-103903885D01*
X72368191Y-103950000D01*
X72131809Y-103950000D01*
X71899974Y-103903885D01*
X71681589Y-103813427D01*
X71681588Y-103813427D01*
X71681587Y-103813426D01*
X71485045Y-103682101D01*
X71317899Y-103514955D01*
X71186574Y-103318413D01*
X71186573Y-103318411D01*
X71096115Y-103100026D01*
X71050000Y-102868191D01*
X71050000Y-102631809D01*
X71096115Y-102399974D01*
X71186573Y-102181589D01*
X71317899Y-101985045D01*
X71485045Y-101817899D01*
X71556731Y-101770000D01*
X71681587Y-101686574D01*
X71681589Y-101686573D01*
X71899974Y-101596115D01*
X72131809Y-101550000D01*
X72368191Y-101550000D01*
X72600026Y-101596115D01*
G37*
G36*
X81738703Y-98633486D02*
G01*
X82029883Y-98754097D01*
X82291940Y-98929198D01*
X82514802Y-99152060D01*
X82689903Y-99414117D01*
X82810514Y-99705297D01*
X82872000Y-100014412D01*
X82872000Y-100329588D01*
X82810514Y-100638703D01*
X82689903Y-100929883D01*
X82514802Y-101191940D01*
X82291940Y-101414802D01*
X82029883Y-101589903D01*
X81738703Y-101710514D01*
X81429588Y-101772000D01*
X81114412Y-101772000D01*
X80805297Y-101710514D01*
X80514117Y-101589903D01*
X80252060Y-101414802D01*
X80029198Y-101191940D01*
X79854097Y-100929883D01*
X79733486Y-100638703D01*
X79672000Y-100329588D01*
X79672000Y-100014412D01*
X79733486Y-99705297D01*
X79854097Y-99414117D01*
X80029198Y-99152060D01*
X80252060Y-98929198D01*
X80514117Y-98754097D01*
X80805297Y-98633486D01*
X81114412Y-98572000D01*
X81429588Y-98572000D01*
X81738703Y-98633486D01*
G37*
G36*
X100786703Y-98631486D02*
G01*
X101077883Y-98752097D01*
X101339940Y-98927198D01*
X101562802Y-99150060D01*
X101737903Y-99412117D01*
X101858514Y-99703297D01*
X101920000Y-100012412D01*
X101920000Y-100327588D01*
X101858514Y-100636703D01*
X101737903Y-100927883D01*
X101562802Y-101189940D01*
X101339940Y-101412802D01*
X101077883Y-101587903D01*
X100786703Y-101708514D01*
X100477588Y-101770000D01*
X100162412Y-101770000D01*
X99853297Y-101708514D01*
X99562117Y-101587903D01*
X99300060Y-101412802D01*
X99077198Y-101189940D01*
X98902097Y-100927883D01*
X98781486Y-100636703D01*
X98720000Y-100327588D01*
X98720000Y-100012412D01*
X98781486Y-99703297D01*
X98902097Y-99412117D01*
X99077198Y-99150060D01*
X99300060Y-98927198D01*
X99562117Y-98752097D01*
X99853297Y-98631486D01*
X100162412Y-98570000D01*
X100477588Y-98570000D01*
X100786703Y-98631486D01*
G37*
G36*
X121300000Y-101550000D02*
G01*
X118100000Y-101550000D01*
X118100000Y-98850000D01*
X121300000Y-98850000D01*
X121300000Y-101550000D01*
G37*
G36*
X76738703Y-96433486D02*
G01*
X77029883Y-96554097D01*
X77291940Y-96729198D01*
X77514802Y-96952060D01*
X77689903Y-97214117D01*
X77810514Y-97505297D01*
X77872000Y-97814412D01*
X77872000Y-98129588D01*
X77810514Y-98438703D01*
X77689903Y-98729883D01*
X77514802Y-98991940D01*
X77291940Y-99214802D01*
X77029883Y-99389903D01*
X76738703Y-99510514D01*
X76429588Y-99572000D01*
X76114412Y-99572000D01*
X75805297Y-99510514D01*
X75514117Y-99389903D01*
X75252060Y-99214802D01*
X75029198Y-98991940D01*
X74854097Y-98729883D01*
X74733486Y-98438703D01*
X74672000Y-98129588D01*
X74672000Y-97814412D01*
X74733486Y-97505297D01*
X74854097Y-97214117D01*
X75029198Y-96952060D01*
X75252060Y-96729198D01*
X75514117Y-96554097D01*
X75805297Y-96433486D01*
X76114412Y-96372000D01*
X76429588Y-96372000D01*
X76738703Y-96433486D01*
G37*
G36*
X95786703Y-96431486D02*
G01*
X96077883Y-96552097D01*
X96339940Y-96727198D01*
X96562802Y-96950060D01*
X96737903Y-97212117D01*
X96858514Y-97503297D01*
X96920000Y-97812412D01*
X96920000Y-98127588D01*
X96858514Y-98436703D01*
X96737903Y-98727883D01*
X96562802Y-98989940D01*
X96339940Y-99212802D01*
X96077883Y-99387903D01*
X95786703Y-99508514D01*
X95477588Y-99570000D01*
X95162412Y-99570000D01*
X94853297Y-99508514D01*
X94562117Y-99387903D01*
X94300060Y-99212802D01*
X94077198Y-98989940D01*
X93902097Y-98727883D01*
X93781486Y-98436703D01*
X93720000Y-98127588D01*
X93720000Y-97812412D01*
X93781486Y-97503297D01*
X93902097Y-97212117D01*
X94077198Y-96950060D01*
X94300060Y-96727198D01*
X94562117Y-96552097D01*
X94853297Y-96431486D01*
X95162412Y-96370000D01*
X95477588Y-96370000D01*
X95786703Y-96431486D01*
G37*
G36*
X128300000Y-98200000D02*
G01*
X126100000Y-98200000D01*
X126100000Y-96000000D01*
X128300000Y-96000000D01*
X128300000Y-98200000D01*
G37*
G36*
X113020857Y-96042272D02*
G01*
X113221043Y-96125192D01*
X113221045Y-96125193D01*
X113401209Y-96245575D01*
X113554425Y-96398791D01*
X113656862Y-96552098D01*
X113674808Y-96578957D01*
X113757728Y-96779143D01*
X113800000Y-96991658D01*
X113800000Y-97208342D01*
X113757728Y-97420857D01*
X113674808Y-97621043D01*
X113674807Y-97621045D01*
X113554425Y-97801209D01*
X113401209Y-97954425D01*
X113221045Y-98074807D01*
X113221044Y-98074808D01*
X113221043Y-98074808D01*
X113020857Y-98157728D01*
X112808342Y-98200000D01*
X112591658Y-98200000D01*
X112379143Y-98157728D01*
X112178957Y-98074808D01*
X112178956Y-98074808D01*
X112178955Y-98074807D01*
X111998791Y-97954425D01*
X111845575Y-97801209D01*
X111725193Y-97621045D01*
X111725192Y-97621043D01*
X111642272Y-97420857D01*
X111600000Y-97208342D01*
X111600000Y-96991658D01*
X111642272Y-96779143D01*
X111725192Y-96578957D01*
X111743139Y-96552098D01*
X111845575Y-96398791D01*
X111998791Y-96245575D01*
X112178955Y-96125193D01*
X112178957Y-96125192D01*
X112379143Y-96042272D01*
X112591658Y-96000000D01*
X112808342Y-96000000D01*
X113020857Y-96042272D01*
G37*
G36*
X110511491Y-94531957D02*
G01*
X110562914Y-94542186D01*
X110708232Y-94602378D01*
X110839014Y-94689764D01*
X110950236Y-94800986D01*
X111037622Y-94931768D01*
X111097814Y-95077086D01*
X111106558Y-95121043D01*
X111118555Y-95181355D01*
X111128500Y-95231355D01*
X111128500Y-95388645D01*
X111097814Y-95542914D01*
X111037622Y-95688232D01*
X110950236Y-95819014D01*
X110839014Y-95930236D01*
X110708232Y-96017622D01*
X110562914Y-96077814D01*
X110511491Y-96088043D01*
X110408647Y-96108500D01*
X110251353Y-96108500D01*
X110148509Y-96088043D01*
X110097086Y-96077814D01*
X109951768Y-96017622D01*
X109820986Y-95930236D01*
X109709764Y-95819014D01*
X109622378Y-95688232D01*
X109562186Y-95542914D01*
X109531500Y-95388645D01*
X109531500Y-95231355D01*
X109541446Y-95181355D01*
X109553442Y-95121043D01*
X109562186Y-95077086D01*
X109622378Y-94931768D01*
X109709764Y-94800986D01*
X109820986Y-94689764D01*
X109951768Y-94602378D01*
X110097086Y-94542186D01*
X110148509Y-94531957D01*
X110251353Y-94511500D01*
X110408647Y-94511500D01*
X110511491Y-94531957D01*
G37*
G36*
X91481491Y-94481957D02*
G01*
X91532914Y-94492186D01*
X91678232Y-94552378D01*
X91809014Y-94639764D01*
X91920236Y-94750986D01*
X92007622Y-94881768D01*
X92067814Y-95027086D01*
X92067814Y-95027087D01*
X92098500Y-95181353D01*
X92098500Y-95338647D01*
X92088554Y-95388647D01*
X92067814Y-95492914D01*
X92007622Y-95638232D01*
X91920236Y-95769014D01*
X91809014Y-95880236D01*
X91678232Y-95967622D01*
X91532914Y-96027814D01*
X91481491Y-96038043D01*
X91378647Y-96058500D01*
X91221353Y-96058500D01*
X91118509Y-96038043D01*
X91067086Y-96027814D01*
X90921768Y-95967622D01*
X90790986Y-95880236D01*
X90679764Y-95769014D01*
X90592378Y-95638232D01*
X90532186Y-95492914D01*
X90511446Y-95388647D01*
X90501500Y-95338647D01*
X90501500Y-95181353D01*
X90532186Y-95027087D01*
X90532186Y-95027086D01*
X90592378Y-94881768D01*
X90679764Y-94750986D01*
X90790986Y-94639764D01*
X90921768Y-94552378D01*
X91067086Y-94492186D01*
X91118509Y-94481957D01*
X91221353Y-94461500D01*
X91378647Y-94461500D01*
X91481491Y-94481957D01*
G37*
G36*
X72313491Y-94481957D02*
G01*
X72364914Y-94492186D01*
X72510232Y-94552378D01*
X72641014Y-94639764D01*
X72752236Y-94750986D01*
X72839622Y-94881768D01*
X72899814Y-95027086D01*
X72899814Y-95027087D01*
X72930500Y-95181353D01*
X72930500Y-95338647D01*
X72920554Y-95388647D01*
X72899814Y-95492914D01*
X72839622Y-95638232D01*
X72752236Y-95769014D01*
X72641014Y-95880236D01*
X72510232Y-95967622D01*
X72364914Y-96027814D01*
X72313491Y-96038043D01*
X72210647Y-96058500D01*
X72053353Y-96058500D01*
X71950509Y-96038043D01*
X71899086Y-96027814D01*
X71753768Y-95967622D01*
X71622986Y-95880236D01*
X71511764Y-95769014D01*
X71424378Y-95638232D01*
X71364186Y-95492914D01*
X71343446Y-95388647D01*
X71333500Y-95338647D01*
X71333500Y-95181353D01*
X71364186Y-95027087D01*
X71364186Y-95027086D01*
X71424378Y-94881768D01*
X71511764Y-94750986D01*
X71622986Y-94639764D01*
X71753768Y-94552378D01*
X71899086Y-94492186D01*
X71950509Y-94481957D01*
X72053353Y-94461500D01*
X72210647Y-94461500D01*
X72313491Y-94481957D01*
G37*
G36*
X81625991Y-92442365D02*
G01*
X81801270Y-92477230D01*
X82131488Y-92614011D01*
X82428677Y-92812586D01*
X82681414Y-93065323D01*
X82879989Y-93362512D01*
X83016770Y-93692730D01*
X83032056Y-93769580D01*
X83082863Y-94025000D01*
X83086500Y-94043287D01*
X83086500Y-94400713D01*
X83016770Y-94751270D01*
X82879989Y-95081488D01*
X82681414Y-95378677D01*
X82428677Y-95631414D01*
X82131488Y-95829989D01*
X81801270Y-95966770D01*
X81634211Y-96000000D01*
X81450714Y-96036500D01*
X81093286Y-96036500D01*
X80909789Y-96000000D01*
X80742730Y-95966770D01*
X80412512Y-95829989D01*
X80115323Y-95631414D01*
X79862586Y-95378677D01*
X79664011Y-95081488D01*
X79527230Y-94751270D01*
X79457500Y-94400713D01*
X79457500Y-94043287D01*
X79461138Y-94025000D01*
X79511944Y-93769580D01*
X79527230Y-93692730D01*
X79664011Y-93362512D01*
X79862586Y-93065323D01*
X80115323Y-92812586D01*
X80412512Y-92614011D01*
X80742730Y-92477230D01*
X81093286Y-92407500D01*
X81450714Y-92407500D01*
X81625991Y-92442365D01*
G37*
G36*
X100849270Y-92475230D02*
G01*
X101179488Y-92612011D01*
X101476677Y-92810586D01*
X101729414Y-93063323D01*
X101927989Y-93360512D01*
X102064770Y-93690730D01*
X102064770Y-93690731D01*
X102134500Y-94041286D01*
X102134500Y-94398714D01*
X102103934Y-94552378D01*
X102064770Y-94749270D01*
X101927989Y-95079488D01*
X101729414Y-95376677D01*
X101476677Y-95629414D01*
X101179488Y-95827989D01*
X100849270Y-95964770D01*
X100498714Y-96034500D01*
X100141286Y-96034500D01*
X99790730Y-95964770D01*
X99460512Y-95827989D01*
X99163323Y-95629414D01*
X98910586Y-95376677D01*
X98712011Y-95079488D01*
X98575230Y-94749270D01*
X98536066Y-94552378D01*
X98505500Y-94398714D01*
X98505500Y-94041286D01*
X98575230Y-93690731D01*
X98575230Y-93690730D01*
X98712011Y-93360512D01*
X98910586Y-93063323D01*
X99163323Y-92810586D01*
X99460512Y-92612011D01*
X99790730Y-92475230D01*
X100141286Y-92405500D01*
X100498714Y-92405500D01*
X100849270Y-92475230D01*
G37*
G36*
X127520857Y-93542272D02*
G01*
X127698458Y-93615837D01*
X127721045Y-93625193D01*
X127811738Y-93685792D01*
X127901208Y-93745574D01*
X128054426Y-93898792D01*
X128105346Y-93975000D01*
X128150974Y-94043286D01*
X128174808Y-94078957D01*
X128257728Y-94279143D01*
X128300000Y-94491658D01*
X128300000Y-94708342D01*
X128257728Y-94920857D01*
X128191193Y-95081486D01*
X128174807Y-95121045D01*
X128054425Y-95301209D01*
X127901209Y-95454425D01*
X127721045Y-95574807D01*
X127721044Y-95574808D01*
X127721043Y-95574808D01*
X127520857Y-95657728D01*
X127308342Y-95700000D01*
X127091658Y-95700000D01*
X126879143Y-95657728D01*
X126678957Y-95574808D01*
X126678956Y-95574808D01*
X126678955Y-95574807D01*
X126498791Y-95454425D01*
X126345575Y-95301209D01*
X126225193Y-95121045D01*
X126208807Y-95081486D01*
X126142272Y-94920857D01*
X126100000Y-94708342D01*
X126100000Y-94491658D01*
X126142272Y-94279143D01*
X126225192Y-94078957D01*
X126249027Y-94043286D01*
X126294654Y-93975000D01*
X126345574Y-93898792D01*
X126498792Y-93745574D01*
X126588262Y-93685792D01*
X126678955Y-93625193D01*
X126701542Y-93615837D01*
X126879143Y-93542272D01*
X127091658Y-93500000D01*
X127308342Y-93500000D01*
X127520857Y-93542272D01*
G37*
G36*
X76049366Y-93307642D02*
G01*
X76121047Y-93337334D01*
X76222420Y-93379323D01*
X76378163Y-93483388D01*
X76510612Y-93615837D01*
X76614677Y-93771580D01*
X76656666Y-93872953D01*
X76686358Y-93944634D01*
X76722900Y-94128343D01*
X76722900Y-94315657D01*
X76686358Y-94499366D01*
X76656666Y-94571047D01*
X76614677Y-94672420D01*
X76510612Y-94828163D01*
X76378163Y-94960612D01*
X76222420Y-95064677D01*
X76121047Y-95106666D01*
X76049366Y-95136358D01*
X75865657Y-95172900D01*
X75678343Y-95172900D01*
X75494634Y-95136358D01*
X75422953Y-95106666D01*
X75321580Y-95064677D01*
X75165837Y-94960612D01*
X75033388Y-94828163D01*
X74929323Y-94672420D01*
X74887334Y-94571047D01*
X74857642Y-94499366D01*
X74821100Y-94315657D01*
X74821100Y-94128343D01*
X74857642Y-93944634D01*
X74887334Y-93872953D01*
X74929323Y-93771580D01*
X75033388Y-93615837D01*
X75165837Y-93483388D01*
X75321580Y-93379323D01*
X75422953Y-93337334D01*
X75494634Y-93307642D01*
X75678343Y-93271100D01*
X75865657Y-93271100D01*
X76049366Y-93307642D01*
G37*
G36*
X87049366Y-93307642D02*
G01*
X87121047Y-93337334D01*
X87222420Y-93379323D01*
X87378163Y-93483388D01*
X87510612Y-93615837D01*
X87614677Y-93771580D01*
X87656666Y-93872953D01*
X87686358Y-93944634D01*
X87722900Y-94128343D01*
X87722900Y-94315657D01*
X87686358Y-94499366D01*
X87656666Y-94571047D01*
X87614677Y-94672420D01*
X87510612Y-94828163D01*
X87378163Y-94960612D01*
X87222420Y-95064677D01*
X87121047Y-95106666D01*
X87049366Y-95136358D01*
X86865657Y-95172900D01*
X86678343Y-95172900D01*
X86494634Y-95136358D01*
X86422953Y-95106666D01*
X86321580Y-95064677D01*
X86165837Y-94960612D01*
X86033388Y-94828163D01*
X85929323Y-94672420D01*
X85887334Y-94571047D01*
X85857642Y-94499366D01*
X85821100Y-94315657D01*
X85821100Y-94128343D01*
X85857642Y-93944634D01*
X85887334Y-93872953D01*
X85929323Y-93771580D01*
X86033388Y-93615837D01*
X86165837Y-93483388D01*
X86321580Y-93379323D01*
X86422953Y-93337334D01*
X86494634Y-93307642D01*
X86678343Y-93271100D01*
X86865657Y-93271100D01*
X87049366Y-93307642D01*
G37*
G36*
X106097366Y-93305642D02*
G01*
X106169047Y-93335334D01*
X106270420Y-93377323D01*
X106426163Y-93481388D01*
X106558612Y-93613837D01*
X106662677Y-93769580D01*
X106704666Y-93870953D01*
X106734358Y-93942634D01*
X106770900Y-94126343D01*
X106770900Y-94313657D01*
X106734358Y-94497366D01*
X106733529Y-94499367D01*
X106662677Y-94670420D01*
X106558612Y-94826163D01*
X106426163Y-94958612D01*
X106270420Y-95062677D01*
X106169047Y-95104666D01*
X106097366Y-95134358D01*
X105913657Y-95170900D01*
X105726343Y-95170900D01*
X105542634Y-95134358D01*
X105470953Y-95104666D01*
X105369580Y-95062677D01*
X105213837Y-94958612D01*
X105081388Y-94826163D01*
X104977323Y-94670420D01*
X104906471Y-94499367D01*
X104905642Y-94497366D01*
X104869100Y-94313657D01*
X104869100Y-94126343D01*
X104905642Y-93942634D01*
X104935334Y-93870953D01*
X104977323Y-93769580D01*
X105081388Y-93613837D01*
X105213837Y-93481388D01*
X105369580Y-93377323D01*
X105470953Y-93335334D01*
X105542634Y-93305642D01*
X105726343Y-93269100D01*
X105913657Y-93269100D01*
X106097366Y-93305642D01*
G37*
G36*
X95097366Y-93305642D02*
G01*
X95169047Y-93335334D01*
X95270420Y-93377323D01*
X95426163Y-93481388D01*
X95558612Y-93613837D01*
X95662677Y-93769580D01*
X95704666Y-93870953D01*
X95734358Y-93942634D01*
X95770900Y-94126343D01*
X95770900Y-94313657D01*
X95734358Y-94497366D01*
X95733529Y-94499367D01*
X95662677Y-94670420D01*
X95558612Y-94826163D01*
X95426163Y-94958612D01*
X95270420Y-95062677D01*
X95169047Y-95104666D01*
X95097366Y-95134358D01*
X94913657Y-95170900D01*
X94726343Y-95170900D01*
X94542634Y-95134358D01*
X94470953Y-95104666D01*
X94369580Y-95062677D01*
X94213837Y-94958612D01*
X94081388Y-94826163D01*
X93977323Y-94670420D01*
X93906471Y-94499367D01*
X93905642Y-94497366D01*
X93869100Y-94313657D01*
X93869100Y-94126343D01*
X93905642Y-93942634D01*
X93935334Y-93870953D01*
X93977323Y-93769580D01*
X94081388Y-93613837D01*
X94213837Y-93481388D01*
X94369580Y-93377323D01*
X94470953Y-93335334D01*
X94542634Y-93305642D01*
X94726343Y-93269100D01*
X94913657Y-93269100D01*
X95097366Y-93305642D01*
G37*
G36*
X110905000Y-94025000D02*
G01*
X109755000Y-94025000D01*
X109755000Y-92525000D01*
X110905000Y-92525000D01*
X110905000Y-94025000D01*
G37*
G36*
X91875000Y-93975000D02*
G01*
X90725000Y-93975000D01*
X90725000Y-92475000D01*
X91875000Y-92475000D01*
X91875000Y-93975000D01*
G37*
G36*
X72707000Y-93975000D02*
G01*
X71557000Y-93975000D01*
X71557000Y-92475000D01*
X72707000Y-92475000D01*
X72707000Y-93975000D01*
G37*
G36*
X127520857Y-91042272D02*
G01*
X127721043Y-91125192D01*
X127721045Y-91125193D01*
X127811738Y-91185792D01*
X127901208Y-91245574D01*
X128054426Y-91398792D01*
X128174808Y-91578957D01*
X128257728Y-91779143D01*
X128300000Y-91991658D01*
X128300000Y-92208342D01*
X128257728Y-92420857D01*
X128234377Y-92477230D01*
X128174807Y-92621045D01*
X128054425Y-92801209D01*
X127901209Y-92954425D01*
X127721045Y-93074807D01*
X127721044Y-93074808D01*
X127721043Y-93074808D01*
X127520857Y-93157728D01*
X127308342Y-93200000D01*
X127091658Y-93200000D01*
X126879143Y-93157728D01*
X126678957Y-93074808D01*
X126678956Y-93074808D01*
X126678955Y-93074807D01*
X126498791Y-92954425D01*
X126345575Y-92801209D01*
X126225193Y-92621045D01*
X126165623Y-92477230D01*
X126142272Y-92420857D01*
X126100000Y-92208342D01*
X126100000Y-91991658D01*
X126142272Y-91779143D01*
X126225192Y-91578957D01*
X126345574Y-91398792D01*
X126498792Y-91245574D01*
X126588262Y-91185792D01*
X126678955Y-91125193D01*
X126678957Y-91125192D01*
X126879143Y-91042272D01*
X127091658Y-91000000D01*
X127308342Y-91000000D01*
X127520857Y-91042272D01*
G37*
G36*
X113020857Y-91042272D02*
G01*
X113221043Y-91125192D01*
X113221045Y-91125193D01*
X113311738Y-91185792D01*
X113401208Y-91245574D01*
X113554426Y-91398792D01*
X113674808Y-91578957D01*
X113757728Y-91779143D01*
X113800000Y-91991658D01*
X113800000Y-92208342D01*
X113757728Y-92420857D01*
X113734377Y-92477230D01*
X113674807Y-92621045D01*
X113554425Y-92801209D01*
X113401209Y-92954425D01*
X113221045Y-93074807D01*
X113221044Y-93074808D01*
X113221043Y-93074808D01*
X113020857Y-93157728D01*
X112808342Y-93200000D01*
X112591658Y-93200000D01*
X112379143Y-93157728D01*
X112178957Y-93074808D01*
X112178956Y-93074808D01*
X112178955Y-93074807D01*
X111998791Y-92954425D01*
X111845575Y-92801209D01*
X111725193Y-92621045D01*
X111665623Y-92477230D01*
X111642272Y-92420857D01*
X111600000Y-92208342D01*
X111600000Y-91991658D01*
X111642272Y-91779143D01*
X111725192Y-91578957D01*
X111845574Y-91398792D01*
X111998792Y-91245574D01*
X112088262Y-91185792D01*
X112178955Y-91125193D01*
X112178957Y-91125192D01*
X112379143Y-91042272D01*
X112591658Y-91000000D01*
X112808342Y-91000000D01*
X113020857Y-91042272D01*
G37*
G36*
X86608137Y-89438138D02*
G01*
X86665642Y-89449577D01*
X86719811Y-89472015D01*
X86773981Y-89494452D01*
X86871479Y-89559598D01*
X86954402Y-89642521D01*
X87019548Y-89740019D01*
X87019548Y-89740020D01*
X87063595Y-89846358D01*
X87064423Y-89848359D01*
X87087300Y-89963367D01*
X87087300Y-90080633D01*
X87064423Y-90195641D01*
X87019548Y-90303981D01*
X86954402Y-90401479D01*
X86871479Y-90484402D01*
X86773981Y-90549548D01*
X86719811Y-90571986D01*
X86665642Y-90594423D01*
X86608137Y-90605861D01*
X86550633Y-90617300D01*
X86433367Y-90617300D01*
X86375863Y-90605861D01*
X86318358Y-90594423D01*
X86264189Y-90571986D01*
X86210019Y-90549548D01*
X86112521Y-90484402D01*
X86029598Y-90401479D01*
X85964452Y-90303981D01*
X85919577Y-90195641D01*
X85896700Y-90080633D01*
X85896700Y-89963367D01*
X85919577Y-89848359D01*
X85920406Y-89846358D01*
X85964452Y-89740020D01*
X85964452Y-89740019D01*
X86029598Y-89642521D01*
X86112521Y-89559598D01*
X86210019Y-89494452D01*
X86264189Y-89472014D01*
X86318358Y-89449577D01*
X86375863Y-89438138D01*
X86433367Y-89426700D01*
X86550633Y-89426700D01*
X86608137Y-89438138D01*
G37*
G36*
X105608687Y-89426700D02*
G01*
X105713642Y-89447577D01*
X105718470Y-89449577D01*
X105821981Y-89492452D01*
X105919479Y-89557598D01*
X106002402Y-89640521D01*
X106067548Y-89738019D01*
X106089986Y-89792189D01*
X106112423Y-89846358D01*
X106135300Y-89961368D01*
X106135300Y-90078632D01*
X106112423Y-90193642D01*
X106089985Y-90247811D01*
X106067548Y-90301981D01*
X106002402Y-90399479D01*
X105919479Y-90482402D01*
X105821981Y-90547548D01*
X105817152Y-90549548D01*
X105713642Y-90592423D01*
X105703587Y-90594423D01*
X105598633Y-90615300D01*
X105481367Y-90615300D01*
X105376413Y-90594423D01*
X105366358Y-90592423D01*
X105262848Y-90549548D01*
X105258019Y-90547548D01*
X105160521Y-90482402D01*
X105077598Y-90399479D01*
X105012452Y-90301981D01*
X104990015Y-90247811D01*
X104967577Y-90193642D01*
X104944700Y-90078632D01*
X104944700Y-89961368D01*
X104967577Y-89846358D01*
X104990015Y-89792189D01*
X105012452Y-89738019D01*
X105077598Y-89640521D01*
X105160521Y-89557598D01*
X105258019Y-89492452D01*
X105361530Y-89449577D01*
X105366358Y-89447577D01*
X105471313Y-89426700D01*
X105481367Y-89424700D01*
X105598633Y-89424700D01*
X105608687Y-89426700D01*
G37*
G36*
X110905000Y-90475000D02*
G01*
X109755000Y-90475000D01*
X109755000Y-88975000D01*
X110905000Y-88975000D01*
X110905000Y-90475000D01*
G37*
G36*
X91875000Y-90425000D02*
G01*
X90725000Y-90425000D01*
X90725000Y-88925000D01*
X91875000Y-88925000D01*
X91875000Y-90425000D01*
G37*
G36*
X72707000Y-90425000D02*
G01*
X71557000Y-90425000D01*
X71557000Y-88925000D01*
X72707000Y-88925000D01*
X72707000Y-90425000D01*
G37*
G36*
X121300000Y-90350000D02*
G01*
X118100000Y-90350000D01*
X118100000Y-87650000D01*
X121300000Y-87650000D01*
X121300000Y-90350000D01*
G37*
G36*
X111128500Y-88488500D02*
G01*
X109531500Y-88488500D01*
X109531500Y-86891500D01*
X111128500Y-86891500D01*
X111128500Y-88488500D01*
G37*
G36*
X92098500Y-88438500D02*
G01*
X90501500Y-88438500D01*
X90501500Y-86841500D01*
X92098500Y-86841500D01*
X92098500Y-88438500D01*
G37*
G36*
X72930500Y-88438500D02*
G01*
X71333500Y-88438500D01*
X71333500Y-86841500D01*
X72930500Y-86841500D01*
X72930500Y-88438500D01*
G37*
G36*
X75885720Y-83529512D02*
G01*
X75923869Y-83541084D01*
X75959024Y-83559875D01*
X75989837Y-83585163D01*
X76015125Y-83615976D01*
X76033916Y-83651131D01*
X76045488Y-83689280D01*
X76050000Y-83735089D01*
X76050000Y-85264911D01*
X76045488Y-85310720D01*
X76033916Y-85348869D01*
X76015125Y-85384024D01*
X75989837Y-85414837D01*
X75959024Y-85440125D01*
X75923869Y-85458916D01*
X75885720Y-85470488D01*
X75839911Y-85475000D01*
X74635089Y-85475000D01*
X74589280Y-85470488D01*
X74551131Y-85458916D01*
X74515976Y-85440125D01*
X74485163Y-85414837D01*
X74459875Y-85384024D01*
X74441084Y-85348869D01*
X74429512Y-85310720D01*
X74425000Y-85264911D01*
X74425000Y-83735089D01*
X74429512Y-83689280D01*
X74441084Y-83651131D01*
X74459875Y-83615976D01*
X74485163Y-83585163D01*
X74515976Y-83559875D01*
X74551131Y-83541084D01*
X74589280Y-83529512D01*
X74635089Y-83525000D01*
X75839911Y-83525000D01*
X75885720Y-83529512D01*
G37*
G36*
X81385720Y-83529512D02*
G01*
X81423869Y-83541084D01*
X81459024Y-83559875D01*
X81489837Y-83585163D01*
X81515125Y-83615976D01*
X81533916Y-83651131D01*
X81545488Y-83689280D01*
X81550000Y-83735089D01*
X81550000Y-85264911D01*
X81545488Y-85310720D01*
X81533916Y-85348869D01*
X81515125Y-85384024D01*
X81489837Y-85414837D01*
X81459024Y-85440125D01*
X81423869Y-85458916D01*
X81385720Y-85470488D01*
X81339911Y-85475000D01*
X80135089Y-85475000D01*
X80089280Y-85470488D01*
X80051131Y-85458916D01*
X80015976Y-85440125D01*
X79985163Y-85414837D01*
X79959875Y-85384024D01*
X79941084Y-85348869D01*
X79929512Y-85310720D01*
X79925000Y-85264911D01*
X79925000Y-83735089D01*
X79929512Y-83689280D01*
X79941084Y-83651131D01*
X79959875Y-83615976D01*
X79985163Y-83585163D01*
X80015976Y-83559875D01*
X80051131Y-83541084D01*
X80089280Y-83529512D01*
X80135089Y-83525000D01*
X81339911Y-83525000D01*
X81385720Y-83529512D01*
G37*
G36*
X78410720Y-83529512D02*
G01*
X78448869Y-83541084D01*
X78484024Y-83559875D01*
X78514837Y-83585163D01*
X78540125Y-83615976D01*
X78558916Y-83651131D01*
X78570488Y-83689280D01*
X78575000Y-83735089D01*
X78575000Y-85264911D01*
X78570488Y-85310720D01*
X78558916Y-85348869D01*
X78540125Y-85384024D01*
X78514837Y-85414837D01*
X78484024Y-85440125D01*
X78448869Y-85458916D01*
X78410720Y-85470488D01*
X78364911Y-85475000D01*
X77160089Y-85475000D01*
X77114280Y-85470488D01*
X77076131Y-85458916D01*
X77040976Y-85440125D01*
X77010163Y-85414837D01*
X76984875Y-85384024D01*
X76966084Y-85348869D01*
X76954512Y-85310720D01*
X76950000Y-85264911D01*
X76950000Y-83735089D01*
X76954512Y-83689280D01*
X76966084Y-83651131D01*
X76984875Y-83615976D01*
X77010163Y-83585163D01*
X77040976Y-83559875D01*
X77076131Y-83541084D01*
X77114280Y-83529512D01*
X77160089Y-83525000D01*
X78364911Y-83525000D01*
X78410720Y-83529512D01*
G37*
G36*
X72910720Y-83529512D02*
G01*
X72948869Y-83541084D01*
X72984024Y-83559875D01*
X73014837Y-83585163D01*
X73040125Y-83615976D01*
X73058916Y-83651131D01*
X73070488Y-83689280D01*
X73075000Y-83735089D01*
X73075000Y-85264911D01*
X73070488Y-85310720D01*
X73058916Y-85348869D01*
X73040125Y-85384024D01*
X73014837Y-85414837D01*
X72984024Y-85440125D01*
X72948869Y-85458916D01*
X72910720Y-85470488D01*
X72864911Y-85475000D01*
X71660089Y-85475000D01*
X71614280Y-85470488D01*
X71576131Y-85458916D01*
X71540976Y-85440125D01*
X71510163Y-85414837D01*
X71484875Y-85384024D01*
X71466084Y-85348869D01*
X71454512Y-85310720D01*
X71450000Y-85264911D01*
X71450000Y-83735089D01*
X71454512Y-83689280D01*
X71466084Y-83651131D01*
X71484875Y-83615976D01*
X71510163Y-83585163D01*
X71540976Y-83559875D01*
X71576131Y-83541084D01*
X71614280Y-83529512D01*
X71660089Y-83525000D01*
X72864911Y-83525000D01*
X72910720Y-83529512D01*
G37*
G36*
X137850026Y-82846115D02*
G01*
X138068411Y-82936573D01*
X138068413Y-82936574D01*
X138264955Y-83067899D01*
X138432101Y-83235045D01*
X138563427Y-83431589D01*
X138653885Y-83649974D01*
X138700000Y-83881809D01*
X138700000Y-84118191D01*
X138653885Y-84350026D01*
X138563427Y-84568411D01*
X138563426Y-84568413D01*
X138432101Y-84764955D01*
X138264955Y-84932101D01*
X138068413Y-85063426D01*
X138068412Y-85063427D01*
X138068411Y-85063427D01*
X137850026Y-85153885D01*
X137618191Y-85200000D01*
X137381809Y-85200000D01*
X137149974Y-85153885D01*
X136931589Y-85063427D01*
X136931588Y-85063427D01*
X136931587Y-85063426D01*
X136735045Y-84932101D01*
X136567899Y-84764955D01*
X136436574Y-84568413D01*
X136436573Y-84568411D01*
X136346115Y-84350026D01*
X136300000Y-84118191D01*
X136300000Y-83881809D01*
X136346115Y-83649974D01*
X136436573Y-83431589D01*
X136567899Y-83235045D01*
X136735045Y-83067899D01*
X136931587Y-82936574D01*
X136931589Y-82936573D01*
X137149974Y-82846115D01*
X137381809Y-82800000D01*
X137618191Y-82800000D01*
X137850026Y-82846115D01*
G37*
G36*
X85600026Y-82846115D02*
G01*
X85818411Y-82936573D01*
X85818413Y-82936574D01*
X86014955Y-83067899D01*
X86182101Y-83235045D01*
X86313427Y-83431589D01*
X86403885Y-83649974D01*
X86450000Y-83881809D01*
X86450000Y-84118191D01*
X86403885Y-84350026D01*
X86313427Y-84568411D01*
X86313426Y-84568413D01*
X86182101Y-84764955D01*
X86014955Y-84932101D01*
X85818413Y-85063426D01*
X85818412Y-85063427D01*
X85818411Y-85063427D01*
X85600026Y-85153885D01*
X85368191Y-85200000D01*
X85131809Y-85200000D01*
X84899974Y-85153885D01*
X84681589Y-85063427D01*
X84681588Y-85063427D01*
X84681587Y-85063426D01*
X84485045Y-84932101D01*
X84317899Y-84764955D01*
X84186574Y-84568413D01*
X84186573Y-84568411D01*
X84096115Y-84350026D01*
X84050000Y-84118191D01*
X84050000Y-83881809D01*
X84096115Y-83649974D01*
X84186573Y-83431589D01*
X84317899Y-83235045D01*
X84485045Y-83067899D01*
X84681587Y-82936574D01*
X84681589Y-82936573D01*
X84899974Y-82846115D01*
X85131809Y-82800000D01*
X85368191Y-82800000D01*
X85600026Y-82846115D01*
G37*
G36*
X81385720Y-80779512D02*
G01*
X81423869Y-80791084D01*
X81459024Y-80809875D01*
X81489837Y-80835163D01*
X81515125Y-80865976D01*
X81533916Y-80901131D01*
X81545488Y-80939280D01*
X81550000Y-80985089D01*
X81550000Y-82514911D01*
X81545488Y-82560720D01*
X81533916Y-82598869D01*
X81515125Y-82634024D01*
X81489837Y-82664837D01*
X81459024Y-82690125D01*
X81423869Y-82708916D01*
X81385720Y-82720488D01*
X81339911Y-82725000D01*
X80135089Y-82725000D01*
X80089280Y-82720488D01*
X80051131Y-82708916D01*
X80015976Y-82690125D01*
X79985163Y-82664837D01*
X79959875Y-82634024D01*
X79941084Y-82598869D01*
X79929512Y-82560720D01*
X79925000Y-82514911D01*
X79925000Y-80985089D01*
X79929512Y-80939280D01*
X79941084Y-80901131D01*
X79959875Y-80865976D01*
X79985163Y-80835163D01*
X80015976Y-80809875D01*
X80051131Y-80791084D01*
X80089280Y-80779512D01*
X80135089Y-80775000D01*
X81339911Y-80775000D01*
X81385720Y-80779512D01*
G37*
G36*
X75885720Y-80779512D02*
G01*
X75923869Y-80791084D01*
X75959024Y-80809875D01*
X75989837Y-80835163D01*
X76015125Y-80865976D01*
X76033916Y-80901131D01*
X76045488Y-80939280D01*
X76050000Y-80985089D01*
X76050000Y-82514911D01*
X76045488Y-82560720D01*
X76033916Y-82598869D01*
X76015125Y-82634024D01*
X75989837Y-82664837D01*
X75959024Y-82690125D01*
X75923869Y-82708916D01*
X75885720Y-82720488D01*
X75839911Y-82725000D01*
X74635089Y-82725000D01*
X74589280Y-82720488D01*
X74551131Y-82708916D01*
X74515976Y-82690125D01*
X74485163Y-82664837D01*
X74459875Y-82634024D01*
X74441084Y-82598869D01*
X74429512Y-82560720D01*
X74425000Y-82514911D01*
X74425000Y-80985089D01*
X74429512Y-80939280D01*
X74441084Y-80901131D01*
X74459875Y-80865976D01*
X74485163Y-80835163D01*
X74515976Y-80809875D01*
X74551131Y-80791084D01*
X74589280Y-80779512D01*
X74635089Y-80775000D01*
X75839911Y-80775000D01*
X75885720Y-80779512D01*
G37*
G36*
X72910720Y-80779512D02*
G01*
X72948869Y-80791084D01*
X72984024Y-80809875D01*
X73014837Y-80835163D01*
X73040125Y-80865976D01*
X73058916Y-80901131D01*
X73070488Y-80939280D01*
X73075000Y-80985089D01*
X73075000Y-82514911D01*
X73070488Y-82560720D01*
X73058916Y-82598869D01*
X73040125Y-82634024D01*
X73014837Y-82664837D01*
X72984024Y-82690125D01*
X72948869Y-82708916D01*
X72910720Y-82720488D01*
X72864911Y-82725000D01*
X71660089Y-82725000D01*
X71614280Y-82720488D01*
X71576131Y-82708916D01*
X71540976Y-82690125D01*
X71510163Y-82664837D01*
X71484875Y-82634024D01*
X71466084Y-82598869D01*
X71454512Y-82560720D01*
X71450000Y-82514911D01*
X71450000Y-80985089D01*
X71454512Y-80939280D01*
X71466084Y-80901131D01*
X71484875Y-80865976D01*
X71510163Y-80835163D01*
X71540976Y-80809875D01*
X71576131Y-80791084D01*
X71614280Y-80779512D01*
X71660089Y-80775000D01*
X72864911Y-80775000D01*
X72910720Y-80779512D01*
G37*
G36*
X78410720Y-80779512D02*
G01*
X78448869Y-80791084D01*
X78484024Y-80809875D01*
X78514837Y-80835163D01*
X78540125Y-80865976D01*
X78558916Y-80901131D01*
X78570488Y-80939280D01*
X78575000Y-80985089D01*
X78575000Y-82514911D01*
X78570488Y-82560720D01*
X78558916Y-82598869D01*
X78540125Y-82634024D01*
X78514837Y-82664837D01*
X78484024Y-82690125D01*
X78448869Y-82708916D01*
X78410720Y-82720488D01*
X78364911Y-82725000D01*
X77160089Y-82725000D01*
X77114280Y-82720488D01*
X77076131Y-82708916D01*
X77040976Y-82690125D01*
X77010163Y-82664837D01*
X76984875Y-82634024D01*
X76966084Y-82598869D01*
X76954512Y-82560720D01*
X76950000Y-82514911D01*
X76950000Y-80985089D01*
X76954512Y-80939280D01*
X76966084Y-80901131D01*
X76984875Y-80865976D01*
X77010163Y-80835163D01*
X77040976Y-80809875D01*
X77076131Y-80791084D01*
X77114280Y-80779512D01*
X77160089Y-80775000D01*
X78364911Y-80775000D01*
X78410720Y-80779512D01*
G37*
G36*
X86515336Y-76818254D02*
G01*
X86607105Y-76836508D01*
X86779994Y-76908121D01*
X86935590Y-77012087D01*
X87067913Y-77144410D01*
X87171879Y-77300006D01*
X87243492Y-77472895D01*
X87280000Y-77656433D01*
X87280000Y-77843567D01*
X87243492Y-78027105D01*
X87171879Y-78199994D01*
X87067913Y-78355590D01*
X86935590Y-78487913D01*
X86779994Y-78591879D01*
X86607105Y-78663492D01*
X86515336Y-78681746D01*
X86423568Y-78700000D01*
X86236432Y-78700000D01*
X86144664Y-78681746D01*
X86052895Y-78663492D01*
X85880006Y-78591879D01*
X85724410Y-78487913D01*
X85592087Y-78355590D01*
X85488121Y-78199994D01*
X85416508Y-78027105D01*
X85380000Y-77843567D01*
X85380000Y-77656433D01*
X85416508Y-77472895D01*
X85488121Y-77300006D01*
X85592087Y-77144410D01*
X85724410Y-77012087D01*
X85880006Y-76908121D01*
X86052895Y-76836508D01*
X86144664Y-76818254D01*
X86236432Y-76800000D01*
X86423568Y-76800000D01*
X86515336Y-76818254D01*
G37*
G36*
X83975336Y-76818254D02*
G01*
X84067105Y-76836508D01*
X84239994Y-76908121D01*
X84395590Y-77012087D01*
X84527913Y-77144410D01*
X84631879Y-77300006D01*
X84703492Y-77472895D01*
X84740000Y-77656433D01*
X84740000Y-77843567D01*
X84703492Y-78027105D01*
X84631879Y-78199994D01*
X84527913Y-78355590D01*
X84395590Y-78487913D01*
X84239994Y-78591879D01*
X84067105Y-78663492D01*
X83975336Y-78681746D01*
X83883568Y-78700000D01*
X83696432Y-78700000D01*
X83604664Y-78681746D01*
X83512895Y-78663492D01*
X83340006Y-78591879D01*
X83184410Y-78487913D01*
X83052087Y-78355590D01*
X82948121Y-78199994D01*
X82876508Y-78027105D01*
X82840000Y-77843567D01*
X82840000Y-77656433D01*
X82876508Y-77472895D01*
X82948121Y-77300006D01*
X83052087Y-77144410D01*
X83184410Y-77012087D01*
X83340006Y-76908121D01*
X83512895Y-76836508D01*
X83604664Y-76818254D01*
X83696432Y-76800000D01*
X83883568Y-76800000D01*
X83975336Y-76818254D01*
G37*
G36*
X82200000Y-78700000D02*
G01*
X80300000Y-78700000D01*
X80300000Y-76800000D01*
X82200000Y-76800000D01*
X82200000Y-78700000D01*
G37*
M02*
