M48
; DRILL file {KiCad (5.1.6)-1} date 01/01/22 16:18:40
; FORMAT={-:-/ absolute / metric / decimal}
; #@! TF.CreationDate,2022-01-01T16:18:40+09:00
; #@! TF.GenerationSoftware,Kicad,Pcbnew,(5.1.6)-1
FMAT,2
METRIC
T1C0.400
T2C0.813
T3C0.900
T4C1.000
T5C1.300
T6C2.000
T7C0.991
T8C1.702
T9C2.200
T10C3.000
T11C3.429
%
G90
G05
T1
X61.0Y-83.5
X63.754Y-102.997
X64.897Y-99.187
X65.786Y-102.489
X70.104Y-107.696
X82.042Y-104.521
X82.931Y-103.505
X85.598Y-102.616
X104.648Y-121.793
T2
X110.332Y-106.19
X110.332Y-113.81
X72.132Y-87.64
X72.132Y-95.26
X91.302Y-125.49
X91.302Y-133.11
X72.132Y-125.49
X72.132Y-133.11
X110.33Y-125.49
X110.33Y-133.11
X91.3Y-87.64
X91.3Y-95.26
X110.33Y-87.69
X110.33Y-95.31
X52.891Y-81.022
X52.891Y-83.562
X52.891Y-86.102
X52.891Y-88.642
X52.891Y-91.182
X52.891Y-93.722
X52.891Y-96.262
X52.891Y-98.802
X52.891Y-101.342
X52.891Y-103.882
X52.891Y-106.422
X52.891Y-108.962
X68.111Y-81.022
X68.111Y-83.562
X68.111Y-86.102
X68.111Y-88.642
X68.111Y-91.182
X68.111Y-93.722
X68.111Y-96.262
X68.111Y-98.802
X68.111Y-101.342
X68.111Y-103.882
X68.111Y-106.422
X68.111Y-108.962
X91.302Y-106.19
X91.302Y-113.81
X72.13Y-106.195
X72.13Y-113.815
T3
X56.388Y-92.257
X61.722Y-105.156
T4
X55.0Y-116.5
X57.54Y-116.5
X60.08Y-116.5
X62.62Y-116.5
X65.16Y-116.5
X112.7Y-92.1
X112.7Y-97.1
X127.2Y-92.1
X127.2Y-94.6
X127.2Y-97.1
X56.642Y-112.522
X59.182Y-112.522
X61.722Y-112.522
X64.262Y-112.522
X81.25Y-77.75
X83.79Y-77.75
X86.33Y-77.75
T5
X71.75Y-78.25
X78.25Y-78.25
T7
X124.59Y-109.07
X86.49Y-109.07
X86.49Y-128.12
X105.54Y-90.02
X124.59Y-128.12
X105.54Y-109.07
X105.54Y-128.12
X86.492Y-90.022
T8
X94.82Y-132.32
X105.82Y-132.32
X75.772Y-94.222
X86.772Y-94.222
X113.87Y-113.27
X124.87Y-113.27
X75.77Y-113.27
X86.77Y-113.27
X75.77Y-132.32
X86.77Y-132.32
X94.82Y-94.22
X105.82Y-94.22
X113.87Y-132.32
X124.87Y-132.32
X94.82Y-113.27
X105.82Y-113.27
T9
X52.324Y-123.0
X69.088Y-123.0
X85.25Y-84.0
X72.25Y-102.75
X137.5Y-84.0
X52.324Y-112.268
X69.088Y-112.014
X55.0Y-139.0
X137.5Y-139.0
T10
X114.37Y-117.02
X119.37Y-119.22
X76.27Y-117.02
X81.27Y-119.22
X76.27Y-136.07
X81.27Y-138.27
X95.32Y-97.97
X100.32Y-100.17
X114.37Y-136.07
X119.37Y-138.27
X95.32Y-117.02
X100.32Y-119.22
X95.32Y-136.07
X100.32Y-138.27
X76.272Y-97.972
X81.272Y-100.172
T11
X119.37Y-113.27
X81.27Y-113.27
X100.32Y-94.22
X119.37Y-132.32
X100.32Y-113.27
X100.32Y-132.32
X81.272Y-94.222
X81.27Y-132.32
T6
G00X119.95Y-89.0
M15
G01X119.45Y-89.0
M16
G05
G00X119.95Y-100.2
M15
G01X119.45Y-100.2
M16
G05
T0
M30
